<svg width="4170" height="203" xmlns="http://www.w3.org/2000/svg" xmlns:xlink="http://www.w3.org/1999/xlink" xml:space="preserve" overflow="hidden"><g transform="translate(-115 -390)"><path d="M195.306 422.132C196.123 418.812 196.304 417.89 203.116 417.89 205.205 417.89 206.022 417.89 206.022 416.045 206.022 415.03 205.114 415.03 203.57 415.03L191.582 415.03C189.221 415.03 189.13 415.03 188.04 416.783L154.891 469.36 147.808 417.152C147.535 415.03 147.354 415.03 144.992 415.03L132.55 415.03C130.825 415.03 129.826 415.03 129.826 416.783 129.826 417.89 130.643 417.89 132.46 417.89 133.64 417.89 135.275 417.982 136.365 418.074 137.818 418.259 138.363 418.535 138.363 419.55 138.363 419.919 138.272 420.196 137.999 421.302L126.465 468.253C125.557 471.943 124.013 474.894 116.657 475.171 116.203 475.171 115.022 475.264 115.022 476.924 115.022 477.754 115.567 478.031 116.294 478.031 119.2 478.031 122.379 477.754 125.376 477.754 128.463 477.754 131.733 478.031 134.73 478.031 135.184 478.031 136.365 478.031 136.365 476.186 136.365 475.171 135.366 475.171 134.73 475.171 129.553 475.079 128.554 473.234 128.554 471.112 128.554 470.467 128.645 470.006 128.918 468.991L141.269 418.72 141.36 418.72 149.17 475.909C149.352 477.016 149.442 478.031 150.532 478.031 151.531 478.031 152.076 477.016 152.53 476.37L189.221 417.982 189.311 417.982 176.325 470.836C175.417 474.433 175.235 475.171 168.06 475.171 166.516 475.171 165.517 475.171 165.517 476.924 165.517 478.031 166.607 478.031 166.88 478.031 169.422 478.031 175.598 477.754 178.141 477.754 181.864 477.754 185.769 478.031 189.493 478.031 190.038 478.031 191.219 478.031 191.219 476.186 191.219 475.171 190.401 475.171 188.676 475.171 185.315 475.171 182.773 475.171 182.773 473.511 182.773 473.142 182.773 472.957 183.227 471.297L195.306 422.132Z" fill-rule="evenodd"/><path d="M235.208 420.352C235.208 418.507 233.936 417.03 231.845 417.03 229.39 417.03 226.935 419.429 226.935 421.92 226.935 423.673 228.208 425.241 230.39 425.241 232.481 425.241 235.208 423.12 235.208 420.352ZM228.299 455.042C229.39 452.366 229.39 452.182 230.299 449.691 231.026 447.846 231.481 446.554 231.481 444.801 231.481 440.649 228.572 437.235 224.026 437.235 215.481 437.235 212.026 450.614 212.026 451.444 212.026 452.366 212.935 452.366 213.117 452.366 214.026 452.366 214.117 452.182 214.572 450.706 217.026 442.033 220.662 439.265 223.753 439.265 224.481 439.265 226.026 439.265 226.026 442.218 226.026 444.155 225.39 446.092 225.026 447.015 224.299 449.414 220.208 460.116 218.753 464.084 217.844 466.483 216.663 469.527 216.663 471.465 216.663 475.801 219.754 479.03 224.117 479.03 232.663 479.03 236.026 465.652 236.026 464.822 236.026 463.899 235.208 463.899 234.935 463.899 234.026 463.899 234.026 464.176 233.572 465.56 231.936 471.372 228.935 477 224.299 477 222.754 477 222.117 476.078 222.117 473.956 222.117 471.649 222.662 470.357 224.754 464.729L228.299 455.042Z" fill-rule="evenodd"/><path d="M248.471 472.54C248.194 473.931 247.64 476.063 247.64 476.527 247.64 478.196 248.932 479.03 250.316 479.03 251.423 479.03 253.083 478.289 253.729 476.434 253.821 476.249 254.928 471.891 255.482 469.573L257.511 461.229C258.065 459.189 258.618 457.15 259.079 455.017 259.448 453.441 260.186 450.752 260.279 450.381 261.662 447.507 266.552 439.07 275.316 439.07 279.467 439.07 280.297 442.5 280.297 445.56 280.297 451.308 275.777 463.176 274.301 467.163 273.471 469.295 273.378 470.408 273.378 471.428 273.378 475.785 276.607 479.03 280.943 479.03 289.615 479.03 293.028 465.494 293.028 464.752 293.028 463.825 292.197 463.825 291.921 463.825 290.998 463.825 290.998 464.103 290.537 465.494 288.692 471.799 285.648 476.99 281.127 476.99 279.559 476.99 278.913 476.063 278.913 473.931 278.913 471.613 279.744 469.388 280.574 467.348 282.327 462.434 286.201 452.235 286.201 446.951 286.201 440.739 282.235 437.03 275.592 437.03 267.29 437.03 262.77 442.964 261.201 445.096 260.74 439.905 256.958 437.03 252.714 437.03 248.471 437.03 246.718 440.646 245.795 442.315 244.319 445.467 243.028 450.938 243.028 451.308 243.028 452.235 243.95 452.235 244.135 452.235 245.057 452.235 245.149 452.143 245.703 450.103 247.271 443.52 249.116 439.07 252.437 439.07 254.282 439.07 255.297 440.275 255.297 443.335 255.297 445.282 255.021 446.302 253.821 451.123L248.471 472.54Z" fill-rule="evenodd"/><path d="M321.212 420.352C321.212 418.507 319.939 417.03 317.848 417.03 315.393 417.03 312.939 419.429 312.939 421.92 312.939 423.673 314.211 425.241 316.393 425.241 318.484 425.241 321.212 423.12 321.212 420.352ZM314.302 455.042C315.393 452.366 315.393 452.182 316.302 449.691 317.03 447.846 317.484 446.554 317.484 444.801 317.484 440.649 314.575 437.235 310.03 437.235 301.484 437.235 298.029 450.614 298.029 451.444 298.029 452.366 298.938 452.366 299.121 452.366 300.029 452.366 300.12 452.182 300.575 450.706 303.03 442.033 306.666 439.265 309.757 439.265 310.484 439.265 312.03 439.265 312.03 442.218 312.03 444.155 311.393 446.092 311.03 447.015 310.302 449.414 306.212 460.116 304.757 464.084 303.848 466.483 302.666 469.527 302.666 471.465 302.666 475.801 305.757 479.03 310.121 479.03 318.666 479.03 322.03 465.652 322.03 464.822 322.03 463.899 321.212 463.899 320.939 463.899 320.03 463.899 320.03 464.176 319.575 465.56 317.939 471.372 314.939 477 310.302 477 308.757 477 308.121 476.078 308.121 473.956 308.121 471.649 308.666 470.357 310.757 464.729L314.302 455.042Z" fill-rule="evenodd"/><path d="M335.361 472.54C335.09 473.931 334.548 476.063 334.548 476.527 334.548 478.196 335.813 479.03 337.168 479.03 338.253 479.03 339.879 478.289 340.511 476.434 340.602 476.249 341.686 471.891 342.228 469.573L344.216 461.229C344.758 459.189 345.3 457.15 345.752 455.017 346.113 453.441 346.836 450.752 346.927 450.381 348.282 447.507 353.071 439.07 361.654 439.07 365.72 439.07 366.534 442.5 366.534 445.56 366.534 447.878 365.901 450.474 365.178 453.255L362.648 464.01 360.841 471.057C360.48 472.911 359.667 476.063 359.667 476.527 359.667 478.196 360.932 479.03 362.287 479.03 365.088 479.03 365.63 476.712 366.353 473.745 367.618 468.553 370.961 455.017 371.774 451.401 372.045 450.196 376.834 439.07 386.682 439.07 390.568 439.07 391.562 442.222 391.562 445.56 391.562 450.845 387.767 461.415 385.96 466.328 385.146 468.553 384.785 469.573 384.785 471.428 384.785 475.785 387.948 479.03 392.194 479.03 400.687 479.03 404.031 465.494 404.031 464.752 404.031 463.825 403.218 463.825 402.946 463.825 402.043 463.825 402.043 464.103 401.591 465.494 400.236 470.408 397.344 476.99 392.375 476.99 390.839 476.99 390.206 476.063 390.206 473.931 390.206 471.613 391.02 469.388 391.833 467.348 393.549 462.527 397.344 452.235 397.344 446.951 397.344 440.924 393.73 437.03 386.954 437.03 380.177 437.03 375.569 441.11 372.226 446.024 372.136 444.818 371.865 441.666 369.335 439.441 367.076 437.494 364.185 437.03 361.925 437.03 353.794 437.03 349.366 442.964 347.83 445.096 347.378 439.812 343.584 437.03 339.518 437.03 335.361 437.03 333.645 440.646 332.831 442.315 331.205 445.56 330.03 451.03 330.03 451.308 330.03 452.235 330.934 452.235 331.115 452.235 332.018 452.235 332.109 452.143 332.651 450.103 334.187 443.52 335.994 439.07 339.247 439.07 340.692 439.07 342.048 439.812 342.048 443.335 342.048 445.282 341.777 446.302 340.602 451.123L335.361 472.54Z" fill-rule="evenodd"/><path d="M433.216 420.352C433.216 418.507 431.943 417.03 429.852 417.03 427.398 417.03 424.943 419.429 424.943 421.92 424.943 423.673 426.216 425.241 428.398 425.241 430.489 425.241 433.216 423.12 433.216 420.352ZM426.307 455.042C427.398 452.366 427.398 452.182 428.307 449.691 429.034 447.846 429.489 446.554 429.489 444.801 429.489 440.649 426.579 437.235 422.034 437.235 413.488 437.235 410.034 450.614 410.034 451.444 410.034 452.366 410.943 452.366 411.125 452.366 412.034 452.366 412.125 452.182 412.58 450.706 415.034 442.033 418.67 439.265 421.761 439.265 422.489 439.265 424.034 439.265 424.034 442.218 424.034 444.155 423.398 446.092 423.034 447.015 422.307 449.414 418.216 460.116 416.761 464.084 415.852 466.483 414.67 469.527 414.67 471.465 414.67 475.801 417.761 479.03 422.125 479.03 430.671 479.03 434.034 465.652 434.034 464.822 434.034 463.899 433.216 463.899 432.943 463.899 432.034 463.899 432.034 464.176 431.579 465.56 429.943 471.372 426.943 477 422.307 477 420.761 477 420.125 476.078 420.125 473.956 420.125 471.649 420.67 470.357 422.761 464.729L426.307 455.042Z" fill-rule="evenodd"/><path d="M451.101 470.315C455.94 464.938 458.539 462.62 461.766 459.745 461.766 459.653 467.322 454.739 470.549 451.401 479.063 442.778 481.035 438.328 481.035 437.958 481.035 437.03 480.228 437.03 480.049 437.03 479.421 437.03 479.153 437.216 478.705 438.05 476.016 442.5 474.134 443.984 471.983 443.984 469.832 443.984 468.756 442.593 467.412 441.017 465.709 438.885 464.186 437.03 461.228 437.03 454.506 437.03 450.384 445.653 450.384 447.6 450.384 448.063 450.653 448.62 451.459 448.62 452.266 448.62 452.445 448.156 452.624 447.6 454.327 443.335 459.525 443.242 460.242 443.242 462.124 443.242 463.827 443.891 465.889 444.633 469.473 446.024 470.459 446.024 472.789 446.024 469.563 450.01 462.035 456.686 460.332 458.169L452.266 465.957C446.171 472.169 443.035 477.454 443.035 478.103 443.035 479.03 443.931 479.03 444.11 479.03 444.827 479.03 445.006 478.845 445.544 477.825 447.605 474.58 450.294 472.077 453.162 472.077 455.223 472.077 456.12 472.911 458.36 475.6 459.884 477.547 461.497 479.03 464.096 479.03 472.969 479.03 478.167 467.255 478.167 464.752 478.167 464.289 477.808 463.825 477.091 463.825 476.284 463.825 476.105 464.381 475.836 465.03 473.775 471.057 468.039 472.818 465.082 472.818 463.289 472.818 461.676 472.262 459.794 471.613 456.747 470.408 455.403 470.037 453.52 470.037 453.341 470.037 451.907 470.037 451.101 470.315Z" fill-rule="evenodd"/><path d="M501.889 456.593C504.532 456.593 511.277 456.408 515.834 454.461 522.214 451.679 522.67 446.209 522.67 444.911 522.67 440.832 519.206 437.03 512.917 437.03 502.8 437.03 489.037 446.024 489.037 462.249 489.037 471.706 494.415 479.03 503.347 479.03 516.381 479.03 524.037 469.202 524.037 468.09 524.037 467.534 523.49 466.885 522.943 466.885 522.487 466.885 522.305 467.07 521.758 467.812 514.558 476.99 504.623 476.99 503.529 476.99 496.42 476.99 495.599 469.202 495.599 466.235 495.599 465.123 495.691 462.249 497.058 456.593L501.889 456.593ZM497.605 454.553C501.159 440.461 510.548 439.07 512.917 439.07 517.201 439.07 519.662 441.759 519.662 444.911 519.662 454.553 505.079 454.553 501.342 454.553L497.605 454.553Z" fill-rule="evenodd"/><path d="M749.953 520.027 761.044 490.313 758.752 490.313C755.177 499.97 745.461 506.284 734.92 509.07 732.995 509.534 724.013 511.949 706.414 511.949L651.142 511.949 697.798 456.513C698.439 455.77 698.623 455.491 698.623 455.027 698.623 454.841 698.623 454.563 697.981 453.634L655.267 394.484 705.497 394.484C717.78 394.484 726.121 395.784 726.946 395.97 731.895 396.713 739.87 398.292 747.111 402.934 749.402 404.42 755.636 408.599 758.752 416.12L761.044 416.12 749.953 390.027 641.609 390.027C639.501 390.027 639.41 390.12 639.135 390.677 639.043 390.956 639.043 392.72 639.043 393.741L687.532 460.97 640.051 517.334C639.135 518.449 639.135 518.913 639.135 519.006 639.135 520.027 639.96 520.027 641.609 520.027L749.953 520.027Z" fill-rule="evenodd"/><path d="M706.664 547.931C707.044 547.01 707.044 546.878 707.044 546.681 707.044 545.627 706.22 545.035 705.522 545.035 704.698 545.035 704.19 545.627 703.873 546.417L698.039 560.702 677.049 560.702 671.214 546.549C670.898 545.759 670.58 545.035 669.629 545.035 668.741 545.035 668.044 545.759 668.044 546.681 668.044 546.878 668.044 547.01 668.424 547.931L685.927 590.521C686.307 591.377 686.561 592.035 687.576 592.035 688.527 592.035 688.844 591.311 689.034 590.784 689.415 590.126 689.415 589.995 689.859 588.941L706.664 547.931ZM678.381 563.927 696.707 563.927 687.576 586.308 678.381 563.927Z" fill-rule="evenodd"/><path d="M728.415 549.519C728.415 548.473 727.662 547.035 725.906 547.035 724.213 547.035 722.395 548.735 722.395 550.631 722.395 551.742 723.21 553.115 724.903 553.115 726.722 553.115 728.415 551.284 728.415 549.519ZM715.622 582.732C715.372 583.582 715.058 584.366 715.058 585.478 715.058 588.551 717.566 591.035 721.015 591.035 727.286 591.035 730.045 582.013 730.045 581.032 730.045 580.182 729.23 580.182 729.042 580.182 728.164 580.182 728.101 580.575 727.85 581.293 726.408 586.524 723.649 589.204 721.203 589.204 719.949 589.204 719.635 588.355 719.635 586.916 719.635 585.413 720.074 584.17 720.639 582.732 721.266 580.967 721.956 579.201 722.646 577.502 723.21 575.932 725.467 569.983 725.718 569.198 725.906 568.545 726.094 567.76 726.094 567.106 726.094 564.034 723.586 561.549 720.138 561.549 713.929 561.549 711.045 570.44 711.045 571.552 711.045 572.402 711.923 572.402 712.111 572.402 712.989 572.402 713.051 572.075 713.24 571.356 714.87 565.733 717.629 563.38 719.949 563.38 720.952 563.38 721.517 563.902 721.517 565.668 721.517 567.171 721.141 568.152 719.573 572.206L715.622 582.732Z" fill-rule="evenodd"/><path d="M812.051 501.091C812.051 500.809 812.051 500.621 810.439 499.023 798.585 487.179 795.551 469.413 795.551 455.031 795.551 438.675 799.154 422.319 810.818 410.569 812.051 409.441 812.051 409.253 812.051 408.971 812.051 408.313 811.672 408.031 811.102 408.031 810.154 408.031 801.62 414.423 796.025 426.361 791.189 436.701 790.051 447.135 790.051 455.031 790.051 462.363 791.093 473.737 796.309 484.359 801.999 495.921 810.154 502.031 811.102 502.031 811.672 502.031 812.051 501.749 812.051 501.091Z" fill-rule="evenodd"/><path d="M860.686 456.13C860.686 441.573 852.232 437.03 845.505 437.03 833.05 437.03 821.05 450.288 821.05 463.362 821.05 471.984 826.504 479.03 835.777 479.03 841.504 479.03 848.05 476.898 854.959 471.242 856.141 476.156 859.141 479.03 863.232 479.03 868.05 479.03 870.868 473.931 870.868 472.447 870.868 471.799 870.323 471.52 869.777 471.52 869.141 471.52 868.868 471.799 868.595 472.447 866.959 476.99 863.687 476.99 863.505 476.99 860.686 476.99 860.686 469.759 860.686 467.534 860.686 465.587 860.686 465.401 861.596 464.289 870.141 453.348 872.05 442.593 872.05 442.5 872.05 442.315 871.959 441.573 870.959 441.573 870.05 441.573 870.05 441.851 869.596 443.52 867.959 449.361 864.959 456.408 860.686 461.878L860.686 456.13ZM854.596 468.832C846.595 475.971 839.595 476.99 835.959 476.99 830.504 476.99 827.777 472.818 827.777 466.885 827.777 462.342 830.141 452.328 833.05 447.6 837.323 440.832 842.232 439.07 845.413 439.07 854.414 439.07 854.414 451.216 854.414 458.448 854.414 461.878 854.414 467.255 854.596 468.832Z" fill-rule="evenodd"/><path d="M896.338 451.515C896.338 450.469 895.546 449.031 893.697 449.031 891.916 449.031 890.001 450.731 890.001 452.627 890.001 453.738 890.859 455.111 892.641 455.111 894.556 455.111 896.338 453.281 896.338 451.515ZM882.872 484.728C882.609 485.578 882.279 486.362 882.279 487.474 882.279 490.547 884.919 493.031 888.549 493.031 895.15 493.031 898.054 484.009 898.054 483.028 898.054 482.178 897.196 482.178 896.998 482.178 896.074 482.178 896.008 482.571 895.744 483.29 894.225 488.52 891.321 491.201 888.747 491.201 887.427 491.201 887.097 490.351 887.097 488.913 887.097 487.409 887.559 486.167 888.153 484.728 888.813 482.963 889.539 481.198 890.265 479.498 890.859 477.929 893.235 471.979 893.5 471.195 893.697 470.541 893.896 469.756 893.896 469.103 893.896 466.03 891.255 463.545 887.625 463.545 881.09 463.545 878.054 472.437 878.054 473.548 878.054 474.398 878.978 474.398 879.176 474.398 880.1 474.398 880.166 474.071 880.364 473.352 882.08 467.729 884.985 465.376 887.427 465.376 888.483 465.376 889.077 465.899 889.077 467.664 889.077 469.168 888.681 470.148 887.031 474.202L882.872 484.728Z" fill-rule="evenodd"/><path d="M963.435 456.892 989.028 456.892C990.312 456.892 992.055 456.892 992.055 455.031 992.055 453.169 990.312 453.169 989.028 453.169L963.435 453.169 963.435 427.102C963.435 425.799 963.435 424.03 961.601 424.03 959.766 424.03 959.766 425.799 959.766 427.102L959.766 453.169 934.081 453.169C932.797 453.169 931.055 453.169 931.055 455.031 931.055 456.892 932.797 456.892 934.081 456.892L959.766 456.892 959.766 482.958C959.766 484.262 959.766 486.031 961.601 486.031 963.435 486.031 963.435 484.262 963.435 482.958L963.435 456.892Z" fill-rule="evenodd"/><path d="M1070.06 424.818C1070.06 417.817 1065.01 412.031 1057.58 412.031 1052.26 412.031 1049.7 413.524 1046.49 415.951 1041.44 419.684 1036.4 428.737 1034.65 435.831L1020.07 495.098C1019.98 495.471 1020.44 496.031 1021.17 496.031 1021.9 496.031 1022.18 495.844 1022.27 495.564L1028.69 469.804C1030.43 475.404 1034.47 478.858 1041.17 478.858 1047.86 478.858 1054.74 475.591 1058.87 471.484 1063.27 467.191 1066.21 461.217 1066.21 454.311 1066.21 447.591 1062.81 442.738 1059.51 440.404 1064.83 437.324 1070.06 431.537 1070.06 424.818ZM1053.55 440.311C1052.36 440.778 1051.35 440.964 1049.15 440.964 1047.86 440.964 1046.03 441.057 1045.11 440.591 1045.29 439.657 1048.6 439.844 1049.6 439.844 1051.53 439.844 1052.36 439.844 1053.55 440.311ZM1064.92 422.671C1064.92 429.204 1061.44 435.924 1056.67 438.817 1054.19 437.884 1052.36 437.697 1049.6 437.697 1047.68 437.697 1042.54 437.604 1042.54 440.684 1042.45 443.297 1047.22 443.017 1048.87 443.017 1052.26 443.017 1053.64 442.924 1056.39 441.804 1059.88 445.164 1060.34 448.057 1060.43 452.351 1060.61 457.764 1058.41 464.764 1055.84 468.404 1052.26 473.444 1046.12 476.804 1040.89 476.804 1033.92 476.804 1030.43 471.391 1030.43 464.764 1030.43 463.831 1030.43 462.431 1030.89 460.658L1036.76 437.044C1038.78 429.018 1045.39 414.177 1056.39 414.177 1061.71 414.177 1064.92 417.071 1064.92 422.671Z" fill-rule="evenodd"/><path d="M1089.43 451.515C1089.43 450.469 1088.68 449.031 1086.92 449.031 1085.23 449.031 1083.41 450.731 1083.41 452.627 1083.41 453.738 1084.22 455.111 1085.92 455.111 1087.74 455.111 1089.43 453.281 1089.43 451.515ZM1076.64 484.728C1076.39 485.578 1076.07 486.362 1076.07 487.474 1076.07 490.547 1078.58 493.031 1082.03 493.031 1088.3 493.031 1091.06 484.009 1091.06 483.028 1091.06 482.178 1090.24 482.178 1090.06 482.178 1089.18 482.178 1089.11 482.571 1088.86 483.29 1087.42 488.52 1084.66 491.201 1082.22 491.201 1080.96 491.201 1080.65 490.351 1080.65 488.913 1080.65 487.409 1081.09 486.167 1081.65 484.728 1082.28 482.963 1082.97 481.198 1083.66 479.498 1084.22 477.929 1086.48 471.979 1086.73 471.195 1086.92 470.541 1087.11 469.756 1087.11 469.103 1087.11 466.03 1084.6 463.545 1081.15 463.545 1074.94 463.545 1072.06 472.437 1072.06 473.548 1072.06 474.398 1072.94 474.398 1073.13 474.398 1074 474.398 1074.07 474.071 1074.25 473.352 1075.88 467.729 1078.64 465.376 1080.96 465.376 1081.97 465.376 1082.53 465.899 1082.53 467.664 1082.53 469.168 1082.15 470.148 1080.59 474.202L1076.64 484.728Z" fill-rule="evenodd"/><path d="M1126.06 455.031C1126.06 447.699 1125.07 436.325 1120.09 425.703 1114.66 414.141 1106.87 408.031 1105.97 408.031 1105.42 408.031 1105.06 408.407 1105.06 408.971 1105.06 409.253 1105.06 409.441 1106.78 411.133 1115.65 420.439 1120.81 435.385 1120.81 455.031 1120.81 471.105 1117.46 487.649 1106.24 499.493 1105.06 500.621 1105.06 500.809 1105.06 501.091 1105.06 501.655 1105.42 502.031 1105.97 502.031 1106.87 502.031 1115.02 495.639 1120.36 483.701 1124.97 473.361 1126.06 462.927 1126.06 455.031Z" fill-rule="evenodd"/><path d="M1165.06 501.091C1165.06 500.809 1165.06 500.621 1163.52 499.023 1152.21 487.179 1149.31 469.413 1149.31 455.031 1149.31 438.675 1152.75 422.319 1163.89 410.569 1165.06 409.441 1165.06 409.253 1165.06 408.971 1165.06 408.313 1164.7 408.031 1164.16 408.031 1163.25 408.031 1155.11 414.423 1149.76 426.361 1145.15 436.701 1144.06 447.135 1144.06 455.031 1144.06 462.363 1145.06 473.737 1150.04 484.359 1155.47 495.921 1163.25 502.031 1164.16 502.031 1164.7 502.031 1165.06 501.749 1165.06 501.091Z" fill-rule="evenodd"/><path d="M1198.01 448.883 1213.48 448.883C1226.41 448.883 1239.06 439.29 1239.06 428.959 1239.06 421.856 1233.06 415.03 1221.13 415.03L1191.63 415.03C1189.9 415.03 1188.9 415.03 1188.9 416.783 1188.9 417.89 1189.72 417.89 1191.54 417.89 1192.73 417.89 1194.36 417.982 1195.46 418.074 1196.91 418.259 1197.46 418.535 1197.46 419.55 1197.46 419.919 1197.37 420.196 1197.1 421.302L1184.9 470.836C1183.99 474.433 1183.8 475.171 1176.61 475.171 1175.07 475.171 1174.06 475.171 1174.06 476.924 1174.06 478.031 1175.16 478.031 1175.43 478.031 1177.98 478.031 1184.44 477.754 1186.99 477.754 1188.9 477.754 1190.91 477.846 1192.82 477.846 1194.82 477.846 1196.82 478.031 1198.73 478.031 1199.37 478.031 1200.56 478.031 1200.56 476.186 1200.56 475.171 1199.74 475.171 1198.01 475.171 1194.64 475.171 1192.09 475.171 1192.09 473.511 1192.09 472.957 1192.27 472.496 1192.36 471.943L1198.01 448.883ZM1204.56 421.395C1205.38 418.166 1205.56 417.89 1209.48 417.89L1218.22 417.89C1225.77 417.89 1230.6 420.38 1230.6 426.745 1230.6 430.342 1228.78 438.275 1225.23 441.596 1220.67 445.746 1215.21 446.484 1211.21 446.484L1198.37 446.484 1204.56 421.395Z" fill-rule="evenodd"/><path d="M1262.06 395.989C1262.13 395.859 1262.31 395.009 1262.31 394.944 1262.31 394.617 1262.06 394.029 1261.31 394.029 1260.05 394.029 1254.82 394.552 1253.24 394.682 1252.74 394.748 1251.85 394.813 1251.85 396.185 1251.85 397.1 1252.74 397.1 1253.49 397.1 1256.52 397.1 1256.52 397.557 1256.52 398.08 1256.52 398.538 1256.39 398.93 1256.27 399.518L1247.38 436.501C1247.07 437.677 1247.07 437.808 1247.07 437.938 1247.07 438.919 1247.82 440.029 1249.21 440.029 1250.91 440.029 1251.73 438.722 1252.11 437.285 1252.23 437.024 1254.94 425.523 1255.19 424.609 1259.67 425.066 1263.26 426.569 1263.26 429.967 1263.26 430.293 1263.26 430.62 1263.13 431.274 1262.88 432.254 1262.88 432.58 1262.88 433.299 1262.88 437.938 1266.54 440.029 1269.56 440.029 1275.67 440.029 1277.56 430.098 1277.56 430.032 1277.56 429.183 1276.74 429.183 1276.55 429.183 1275.67 429.183 1275.61 429.509 1275.29 430.751 1274.54 433.56 1272.84 438.2 1269.75 438.2 1268.05 438.2 1267.54 436.566 1267.54 434.802 1267.54 433.691 1267.54 433.56 1267.92 431.862 1267.98 431.666 1268.24 430.555 1268.24 429.836 1268.24 424.021 1260.68 423.106 1258.03 422.91 1259.86 421.734 1262.19 419.578 1263.26 418.597 1266.47 415.461 1269.62 412.39 1273.15 412.39 1273.91 412.39 1274.73 412.586 1275.23 413.239 1272.52 413.697 1271.95 415.918 1271.95 416.898 1271.95 418.336 1273.03 419.316 1274.47 419.316 1276.18 419.316 1278.07 417.879 1278.07 415.134 1278.07 412.978 1276.55 410.56 1273.21 410.56 1269.62 410.56 1266.35 413.239 1263.13 416.311 1260.49 418.924 1258.41 420.95 1255.82 422.06L1262.06 395.989Z" fill-rule="evenodd"/><path d="M1289.86 435.335C1289.6 436.171 1289.22 437.778 1289.22 437.971 1289.22 439.386 1290.37 440.029 1291.39 440.029 1292.54 440.029 1293.56 439.193 1293.88 438.614 1294.2 438.035 1294.71 435.978 1295.03 434.628 1295.34 433.406 1296.05 430.448 1296.43 428.84 1296.81 427.426 1297.2 426.011 1297.52 424.532 1298.22 421.896 1298.35 421.381 1300.2 418.745 1301.98 416.173 1304.98 412.829 1309.77 412.829 1313.47 412.829 1313.54 416.108 1313.54 417.33 1313.54 421.188 1310.79 428.326 1309.77 431.027 1309.07 432.827 1308.81 433.406 1308.81 434.499 1308.81 437.907 1311.62 440.029 1314.88 440.029 1321.26 440.029 1324.07 431.155 1324.07 430.191 1324.07 429.355 1323.24 429.355 1323.05 429.355 1322.15 429.355 1322.09 429.741 1321.83 430.448 1320.37 435.592 1317.62 438.228 1315.07 438.228 1313.73 438.228 1313.47 437.328 1313.47 435.978 1313.47 434.499 1313.79 433.663 1314.94 430.769 1315.71 428.776 1318.32 421.96 1318.32 418.359 1318.32 412.122 1313.41 411.029 1310.03 411.029 1304.73 411.029 1301.15 414.308 1299.24 416.88 1298.79 412.443 1295.03 411.029 1292.41 411.029 1289.66 411.029 1288.2 413.022 1287.37 414.501 1285.96 416.88 1285.07 420.545 1285.07 420.867 1285.07 421.703 1285.96 421.703 1286.15 421.703 1287.05 421.703 1287.11 421.51 1287.56 419.774 1288.52 415.98 1289.73 412.829 1292.22 412.829 1293.88 412.829 1294.32 414.244 1294.32 415.98 1294.32 417.202 1293.75 419.581 1293.3 421.317 1292.86 423.053 1292.22 425.689 1291.9 427.104L1289.86 435.335Z" fill-rule="evenodd"/><path d="M1361.07 422.282C1361.07 415.144 1355.76 411.029 1349.49 411.029 1340.03 411.029 1331.07 419.967 1331.07 428.776 1331.07 435.206 1335.74 440.029 1342.71 440.029 1351.86 440.029 1361.07 431.541 1361.07 422.282ZM1342.78 438.228C1339.58 438.228 1336.38 436.171 1336.38 431.091 1336.38 428.454 1337.59 422.153 1340.09 418.488 1342.84 414.501 1346.55 412.829 1349.43 412.829 1352.88 412.829 1355.83 415.208 1355.83 419.967 1355.83 421.51 1355.06 427.876 1352.24 432.377 1349.81 436.171 1345.97 438.228 1342.78 438.228Z" fill-rule="evenodd"/><path d="M1396.79 418.92C1397.23 417.188 1398 414.108 1398 413.788 1398 412.504 1396.98 411.734 1395.89 411.734 1394.67 411.734 1393.52 412.504 1393.13 413.595 1392.94 414.108 1392.3 416.803 1391.85 418.407 1390.95 422.064 1390.95 422.192 1389.99 425.785 1389.16 429.314 1389.03 429.827 1388.96 431.688 1389.22 432.971 1388.71 434.19 1387.17 436.115 1386.33 437.141 1385.05 438.232 1382.87 438.232 1380.37 438.232 1377.1 437.334 1377.1 432.329 1377.1 429.057 1378.9 424.31 1380.18 421.038 1381.27 418.215 1381.52 417.637 1381.52 416.546 1381.52 413.467 1378.9 411.093 1375.43 411.093 1368.96 411.093 1366.07 419.819 1366.07 420.909 1366.07 421.743 1366.97 421.743 1367.16 421.743 1368.06 421.743 1368.12 421.423 1368.32 420.717 1369.92 415.392 1372.68 412.889 1375.24 412.889 1376.33 412.889 1376.84 413.595 1376.84 415.135 1376.84 416.611 1376.27 418.022 1375.95 418.856 1372.29 428.223 1372.29 429.506 1372.29 431.495 1372.29 439.066 1379.15 440.029 1382.61 440.029 1383.83 440.029 1386.98 440.029 1389.86 435.73 1391.34 438.617 1394.86 440.029 1398.77 440.029 1404.48 440.029 1407.3 435.088 1408.58 432.458 1411.34 427.068 1413.07 419.049 1413.07 416.097 1413.07 411.285 1410.32 411.029 1409.87 411.029 1408.2 411.029 1406.4 412.761 1406.4 414.429 1406.4 415.52 1407.04 416.033 1407.49 416.418 1409.03 417.701 1409.87 419.498 1409.87 421.551 1409.87 422.385 1407.17 438.232 1399.03 438.232 1393.84 438.232 1393.84 433.612 1393.84 432.522 1393.84 430.79 1394.09 429.763 1394.99 426.106L1396.79 418.92Z" fill-rule="evenodd"/><path d="M1425.86 435.335C1425.61 436.171 1425.22 437.778 1425.22 437.971 1425.22 439.386 1426.37 440.029 1427.39 440.029 1428.54 440.029 1429.56 439.193 1429.88 438.614 1430.2 438.035 1430.71 435.978 1431.03 434.628 1431.35 433.406 1432.05 430.448 1432.44 428.84 1432.82 427.426 1433.2 426.011 1433.52 424.532 1434.22 421.896 1434.35 421.381 1436.2 418.745 1437.99 416.173 1440.99 412.829 1445.78 412.829 1449.48 412.829 1449.54 416.108 1449.54 417.33 1449.54 421.188 1446.8 428.326 1445.78 431.027 1445.07 432.827 1444.82 433.406 1444.82 434.499 1444.82 437.907 1447.63 440.029 1450.88 440.029 1457.27 440.029 1460.07 431.155 1460.07 430.191 1460.07 429.355 1459.24 429.355 1459.05 429.355 1458.16 429.355 1458.1 429.741 1457.84 430.448 1456.37 435.592 1453.63 438.228 1451.07 438.228 1449.73 438.228 1449.48 437.328 1449.48 435.978 1449.48 434.499 1449.8 433.663 1450.95 430.769 1451.71 428.776 1454.33 421.96 1454.33 418.359 1454.33 412.122 1449.41 411.029 1446.03 411.029 1440.73 411.029 1437.16 414.308 1435.24 416.88 1434.8 412.443 1431.03 411.029 1428.41 411.029 1425.67 411.029 1424.2 413.022 1423.37 414.501 1421.97 416.88 1421.07 420.545 1421.07 420.867 1421.07 421.703 1421.97 421.703 1422.16 421.703 1423.05 421.703 1423.12 421.51 1423.56 419.774 1424.52 415.98 1425.73 412.829 1428.22 412.829 1429.88 412.829 1430.33 414.244 1430.33 415.98 1430.33 417.202 1429.75 419.581 1429.31 421.317 1428.86 423.053 1428.22 425.689 1427.9 427.104L1425.86 435.335Z" fill-rule="evenodd"/><path d="M1249.43 460.516C1249.43 459.47 1248.68 458.031 1246.93 458.031 1245.23 458.031 1243.41 459.731 1243.41 461.627 1243.41 462.739 1244.23 464.112 1245.92 464.112 1247.74 464.112 1249.43 462.281 1249.43 460.516ZM1236.64 493.728C1236.39 494.578 1236.08 495.363 1236.08 496.474 1236.08 499.547 1238.59 502.032 1242.04 502.032 1248.31 502.032 1251.07 493.009 1251.07 492.029 1251.07 491.179 1250.25 491.179 1250.06 491.179 1249.18 491.179 1249.12 491.571 1248.87 492.29 1247.43 497.521 1244.67 500.201 1242.22 500.201 1240.97 500.201 1240.66 499.351 1240.66 497.913 1240.66 496.409 1241.09 495.167 1241.66 493.728 1242.29 491.963 1242.98 490.198 1243.67 488.498 1244.23 486.929 1246.49 480.98 1246.74 480.195 1246.93 479.541 1247.11 478.756 1247.11 478.103 1247.11 475.03 1244.61 472.546 1241.16 472.546 1234.95 472.546 1232.07 481.437 1232.07 482.549 1232.07 483.399 1232.94 483.399 1233.13 483.399 1234.01 483.399 1234.07 483.072 1234.26 482.352 1235.89 476.73 1238.65 474.376 1240.97 474.376 1241.97 474.376 1242.54 474.899 1242.54 476.664 1242.54 478.168 1242.16 479.149 1240.59 483.202L1236.64 493.728Z" fill-rule="evenodd"/><path d="M1547.87 457.033C1549.43 457.033 1551.08 457.033 1551.08 455.033 1551.08 453.033 1549.43 453.033 1547.87 453.033L1498.28 453.033C1496.73 453.033 1495.08 453.033 1495.08 455.033 1495.08 457.033 1496.73 457.033 1498.28 457.033L1547.87 457.033Z" fill-rule="evenodd"/><path d="M1607.02 448.883 1622.5 448.883C1635.43 448.883 1648.08 439.29 1648.08 428.959 1648.08 421.856 1642.07 415.03 1630.15 415.03L1600.65 415.03C1598.92 415.03 1597.92 415.03 1597.92 416.783 1597.92 417.89 1598.74 417.89 1600.56 417.89 1601.74 417.89 1603.38 417.982 1604.47 418.074 1605.93 418.259 1606.48 418.535 1606.48 419.55 1606.48 419.919 1606.39 420.196 1606.11 421.302L1593.91 470.836C1593 474.433 1592.82 475.171 1585.63 475.171 1584.08 475.171 1583.08 475.171 1583.08 476.924 1583.08 478.031 1584.17 478.031 1584.45 478.031 1586.99 478.031 1593.46 477.754 1596.01 477.754 1597.92 477.754 1599.92 477.846 1601.83 477.846 1603.84 477.846 1605.84 478.031 1607.75 478.031 1608.39 478.031 1609.57 478.031 1609.57 476.186 1609.57 475.171 1608.75 475.171 1607.02 475.171 1603.65 475.171 1601.11 475.171 1601.11 473.511 1601.11 472.957 1601.29 472.496 1601.38 471.943L1607.02 448.883ZM1613.58 421.395C1614.4 418.166 1614.58 417.89 1618.49 417.89L1627.23 417.89C1634.79 417.89 1639.61 420.38 1639.61 426.745 1639.61 430.342 1637.79 438.275 1634.24 441.596 1629.69 445.746 1624.23 446.484 1620.22 446.484L1607.39 446.484 1613.58 421.395Z" fill-rule="evenodd"/><path d="M1678.4 414.758C1676.07 415.144 1675.1 416.944 1675.1 418.359 1675.1 420.095 1676.46 420.738 1677.62 420.738 1679.04 420.738 1681.31 419.709 1681.31 416.623 1681.31 412.251 1676.26 411.029 1672.77 411.029 1663.07 411.029 1654.08 419.902 1654.08 428.84 1654.08 434.37 1657.96 440.029 1666.05 440.029 1676.98 440.029 1682.08 433.663 1682.08 432.763 1682.08 432.377 1681.5 431.669 1680.98 431.669 1680.6 431.669 1680.47 431.798 1679.95 432.313 1674.91 438.228 1667.34 438.228 1666.18 438.228 1661.52 438.228 1659.45 435.078 1659.45 431.091 1659.45 429.226 1660.36 422.217 1663.72 417.781 1666.18 414.63 1669.54 412.829 1672.77 412.829 1673.68 412.829 1676.78 412.958 1678.4 414.758Z" fill-rule="evenodd"/><path d="M1710.44 414.823C1709.09 412.701 1706.89 411.029 1703.78 411.029 1695.5 411.029 1687.09 420.095 1687.09 429.355 1687.09 435.592 1691.29 440.029 1696.86 440.029 1700.35 440.029 1703.46 438.035 1706.04 435.528 1707.27 439.386 1711.03 440.029 1712.71 440.029 1715.04 440.029 1716.66 438.614 1717.82 436.621 1719.24 434.113 1720.09 430.448 1720.09 430.191 1720.09 429.355 1719.24 429.355 1719.05 429.355 1718.14 429.355 1718.08 429.612 1717.63 431.348 1716.85 434.434 1715.62 438.228 1712.9 438.228 1711.22 438.228 1710.77 436.814 1710.77 435.078 1710.77 433.984 1711.29 431.669 1711.74 429.998 1712.19 428.262 1712.84 425.625 1713.16 424.211L1714.46 419.324C1714.84 417.652 1715.62 414.63 1715.62 414.308 1715.62 412.893 1714.46 412.251 1713.42 412.251 1712.32 412.251 1710.83 413.022 1710.44 414.823ZM1706.3 431.348C1705.85 433.149 1704.43 434.434 1703 435.656 1702.42 436.171 1699.83 438.228 1697.05 438.228 1694.66 438.228 1692.33 436.557 1692.33 431.991 1692.33 428.583 1694.2 421.51 1695.69 418.938 1698.67 413.794 1701.97 412.829 1703.78 412.829 1708.31 412.829 1709.54 417.716 1709.54 418.423 1709.54 418.681 1709.41 419.131 1709.34 419.324L1706.3 431.348Z" fill-rule="evenodd"/><path d="M1740.83 395.989C1740.9 395.859 1741.08 395.009 1741.08 394.944 1741.08 394.617 1740.83 394.029 1740.08 394.029 1738.83 394.029 1733.65 394.552 1732.08 394.682 1731.65 394.748 1730.77 394.813 1730.77 396.185 1730.77 397.1 1731.65 397.1 1732.33 397.1 1735.33 397.1 1735.33 397.557 1735.33 398.08 1735.33 398.538 1735.21 398.93 1735.08 399.518L1727.33 431.796C1727.15 432.45 1727.08 433.168 1727.08 433.822 1727.08 438.004 1730.65 440.029 1733.65 440.029 1735.15 440.029 1737.02 439.507 1738.65 436.566 1739.96 434.149 1740.83 430.293 1740.83 430.032 1740.83 429.183 1740.02 429.183 1739.83 429.183 1738.96 429.183 1738.83 429.575 1738.58 430.751 1737.77 434.018 1736.58 438.2 1733.9 438.2 1732.21 438.2 1731.77 436.566 1731.77 434.998 1731.77 434.279 1731.96 433.038 1732.15 432.319L1740.83 395.989Z" fill-rule="evenodd"/><path d="M1658.45 460.516C1658.45 459.47 1657.7 458.031 1655.94 458.031 1654.25 458.031 1652.43 459.731 1652.43 461.627 1652.43 462.739 1653.25 464.112 1654.94 464.112 1656.76 464.112 1658.45 462.281 1658.45 460.516ZM1645.66 493.728C1645.41 494.578 1645.09 495.363 1645.09 496.474 1645.09 499.547 1647.6 502.032 1651.05 502.032 1657.32 502.032 1660.08 493.009 1660.08 492.029 1660.08 491.179 1659.27 491.179 1659.08 491.179 1658.2 491.179 1658.14 491.571 1657.89 492.29 1656.44 497.521 1653.69 500.201 1651.24 500.201 1649.99 500.201 1649.67 499.351 1649.67 497.913 1649.67 496.409 1650.11 495.167 1650.67 493.728 1651.3 491.963 1651.99 490.198 1652.68 488.498 1653.25 486.929 1655.5 480.98 1655.75 480.195 1655.94 479.541 1656.13 478.756 1656.13 478.103 1656.13 475.03 1653.62 472.546 1650.17 472.546 1643.97 472.546 1641.08 481.437 1641.08 482.549 1641.08 483.399 1641.96 483.399 1642.15 483.399 1643.03 483.399 1643.09 483.072 1643.28 482.352 1644.91 476.73 1647.67 474.376 1649.99 474.376 1650.99 474.376 1651.55 474.899 1651.55 476.664 1651.55 478.168 1651.18 479.149 1649.61 483.202L1645.66 493.728Z" fill-rule="evenodd"/><path d="M1777.09 455.031C1777.09 447.699 1776.09 436.325 1771.11 425.703 1765.68 414.141 1757.9 408.031 1756.99 408.031 1756.45 408.031 1756.09 408.407 1756.09 408.971 1756.09 409.253 1756.09 409.441 1757.81 411.133 1766.68 420.439 1771.84 435.385 1771.84 455.031 1771.84 471.105 1768.49 487.649 1757.26 499.493 1756.09 500.621 1756.09 500.809 1756.09 501.091 1756.09 501.655 1756.45 502.031 1756.99 502.031 1757.9 502.031 1766.04 495.639 1771.38 483.701 1776 473.361 1777.09 462.927 1777.09 455.031Z" fill-rule="evenodd"/><path d="M1843.94 456.892 1869.11 456.892C1870.37 456.892 1872.09 456.892 1872.09 455.031 1872.09 453.169 1870.37 453.169 1869.11 453.169L1843.94 453.169 1843.94 427.102C1843.94 425.799 1843.94 424.03 1842.13 424.03 1840.33 424.03 1840.33 425.799 1840.33 427.102L1840.33 453.169 1815.07 453.169C1813.8 453.169 1812.09 453.169 1812.09 455.031 1812.09 456.892 1813.8 456.892 1815.07 456.892L1840.33 456.892 1840.33 482.958C1840.33 484.262 1840.33 486.031 1842.13 486.031 1843.94 486.031 1843.94 484.262 1843.94 482.958L1843.94 456.892Z" fill-rule="evenodd"/><path d="M1950.09 424.818C1950.09 417.817 1945.15 412.031 1937.87 412.031 1932.65 412.031 1930.14 413.524 1926.99 415.951 1922.05 419.684 1917.1 428.737 1915.39 435.831L1901.1 495.098C1901.01 495.471 1901.46 496.031 1902.18 496.031 1902.9 496.031 1903.17 495.844 1903.26 495.564L1909.55 469.804C1911.26 475.404 1915.21 478.858 1921.78 478.858 1928.34 478.858 1935.08 475.591 1939.12 471.484 1943.44 467.191 1946.32 461.217 1946.32 454.311 1946.32 447.591 1942.99 442.738 1939.75 440.404 1944.97 437.324 1950.09 431.537 1950.09 424.818ZM1933.91 440.311C1932.74 440.778 1931.75 440.964 1929.6 440.964 1928.34 440.964 1926.54 441.057 1925.64 440.591 1925.82 439.657 1929.06 439.844 1930.05 439.844 1931.93 439.844 1932.74 439.844 1933.91 440.311ZM1945.06 422.671C1945.06 429.204 1941.64 435.924 1936.97 438.817 1934.54 437.884 1932.74 437.697 1930.05 437.697 1928.16 437.697 1923.12 437.604 1923.12 440.684 1923.04 443.297 1927.71 443.017 1929.33 443.017 1932.65 443.017 1934 442.924 1936.7 441.804 1940.11 445.164 1940.56 448.057 1940.65 452.351 1940.83 457.764 1938.68 464.764 1936.16 468.404 1932.65 473.444 1926.63 476.804 1921.51 476.804 1914.68 476.804 1911.26 471.391 1911.26 464.764 1911.26 463.831 1911.26 462.431 1911.71 460.658L1917.46 437.044C1919.44 429.018 1925.91 414.177 1936.7 414.177 1941.91 414.177 1945.06 417.071 1945.06 422.671Z" fill-rule="evenodd"/><path d="M1970.46 451.515C1970.46 450.469 1969.71 449.031 1967.95 449.031 1966.26 449.031 1964.44 450.731 1964.44 452.627 1964.44 453.738 1965.26 455.111 1966.95 455.111 1968.77 455.111 1970.46 453.281 1970.46 451.515ZM1957.67 484.728C1957.42 485.578 1957.11 486.362 1957.11 487.474 1957.11 490.547 1959.61 493.031 1963.06 493.031 1969.33 493.031 1972.09 484.009 1972.09 483.028 1972.09 482.178 1971.28 482.178 1971.09 482.178 1970.21 482.178 1970.15 482.571 1969.9 483.29 1968.46 488.52 1965.7 491.201 1963.25 491.201 1962 491.201 1961.68 490.351 1961.68 488.913 1961.68 487.409 1962.12 486.167 1962.69 484.728 1963.31 482.963 1964 481.198 1964.69 479.498 1965.26 477.929 1967.52 471.979 1967.77 471.195 1967.95 470.541 1968.14 469.756 1968.14 469.103 1968.14 466.03 1965.63 463.545 1962.19 463.545 1955.98 463.545 1953.09 472.437 1953.09 473.548 1953.09 474.398 1953.97 474.398 1954.16 474.398 1955.04 474.398 1955.1 474.071 1955.29 473.352 1956.92 467.729 1959.68 465.376 1962 465.376 1963 465.376 1963.56 465.899 1963.56 467.664 1963.56 469.168 1963.19 470.148 1961.62 474.202L1957.67 484.728Z" fill-rule="evenodd"/><path d="M2010.1 501.091C2010.1 500.809 2010.1 500.621 2008.56 499.023 1997.24 487.179 1994.35 469.413 1994.35 455.031 1994.35 438.675 1997.78 422.319 2008.92 410.569 2010.1 409.441 2010.1 409.253 2010.1 408.971 2010.1 408.313 2009.73 408.031 2009.19 408.031 2008.28 408.031 2000.14 414.423 1994.8 426.361 1990.18 436.701 1989.09 447.135 1989.09 455.031 1989.09 462.363 1990.09 473.737 1995.07 484.359 2000.5 495.921 2008.28 502.031 2009.19 502.031 2009.73 502.031 2010.1 501.749 2010.1 501.091Z" fill-rule="evenodd"/><path d="M2055.56 477.343C2069.69 471.83 2083.1 455.199 2083.1 437.165 2083.1 422.122 2073.43 412.031 2059.85 412.031 2040.16 412.031 2020.1 433.241 2020.1 455.012 2020.1 470.522 2030.31 479.96 2043.44 479.96 2045.72 479.96 2048.82 479.586 2052.37 478.558 2052.01 484.351 2052.01 484.538 2052.01 485.753 2052.01 488.742 2052.01 496.031 2059.57 496.031 2070.42 496.031 2074.8 478.932 2074.8 477.904 2074.8 477.25 2074.16 476.969 2073.8 476.969 2073.07 476.969 2072.89 477.437 2072.7 477.997 2070.52 484.631 2065.23 486.967 2062.04 486.967 2057.84 486.967 2056.47 484.444 2055.56 477.343ZM2038.33 476.596C2031.22 473.699 2028.12 466.411 2028.12 458.002 2028.12 451.555 2030.49 438.286 2037.42 428.195 2044.08 418.665 2052.65 414.367 2059.3 414.367 2068.42 414.367 2075.07 421.655 2075.07 434.175 2075.07 443.519 2070.42 465.383 2055.11 474.166 2054.65 470.896 2053.74 464.075 2047.08 464.075 2042.25 464.075 2037.78 468.747 2037.78 473.606 2037.78 475.474 2038.33 476.502 2038.33 476.596ZM2043.98 477.624C2042.71 477.624 2039.79 477.624 2039.79 473.606 2039.79 469.868 2043.26 466.131 2047.08 466.131 2050.91 466.131 2052.65 468.373 2052.65 474.073 2052.65 475.474 2052.55 475.568 2051.64 475.942 2049.27 476.969 2046.54 477.624 2043.98 477.624Z" fill-rule="evenodd"/><path d="M2107.58 395.989C2107.65 395.859 2107.84 395.009 2107.84 394.944 2107.84 394.617 2107.58 394.029 2106.8 394.029 2105.5 394.029 2100.1 394.552 2098.48 394.682 2097.96 394.748 2097.05 394.813 2097.05 396.185 2097.05 397.1 2097.96 397.1 2098.74 397.1 2101.86 397.1 2101.86 397.557 2101.86 398.08 2101.86 398.538 2101.73 398.93 2101.6 399.518L2092.43 436.501C2092.1 437.677 2092.1 437.808 2092.1 437.938 2092.1 438.919 2092.88 440.029 2094.31 440.029 2096.07 440.029 2096.91 438.722 2097.31 437.285 2097.44 437.024 2100.23 425.523 2100.49 424.609 2105.11 425.066 2108.82 426.569 2108.82 429.967 2108.82 430.293 2108.82 430.62 2108.69 431.274 2108.43 432.254 2108.43 432.58 2108.43 433.299 2108.43 437.938 2112.2 440.029 2115.32 440.029 2121.63 440.029 2123.58 430.098 2123.58 430.032 2123.58 429.183 2122.74 429.183 2122.54 429.183 2121.63 429.183 2121.57 429.509 2121.24 430.751 2120.46 433.56 2118.7 438.2 2115.52 438.2 2113.76 438.2 2113.24 436.566 2113.24 434.802 2113.24 433.691 2113.24 433.56 2113.63 431.862 2113.7 431.666 2113.96 430.555 2113.96 429.836 2113.96 424.021 2106.15 423.106 2103.42 422.91 2105.31 421.734 2107.71 419.578 2108.82 418.597 2112.13 415.461 2115.39 412.39 2119.03 412.39 2119.81 412.39 2120.66 412.586 2121.18 413.239 2118.38 413.697 2117.79 415.918 2117.79 416.898 2117.79 418.336 2118.9 419.316 2120.39 419.316 2122.15 419.316 2124.1 417.879 2124.1 415.134 2124.1 412.978 2122.54 410.56 2119.09 410.56 2115.39 410.56 2112 413.239 2108.69 416.311 2105.96 418.924 2103.81 420.95 2101.14 422.06L2107.58 395.989Z" fill-rule="evenodd"/><path d="M2135.89 435.335C2135.63 436.171 2135.25 437.778 2135.25 437.971 2135.25 439.386 2136.4 440.029 2137.42 440.029 2138.57 440.029 2139.59 439.193 2139.91 438.614 2140.23 438.035 2140.74 435.978 2141.06 434.628 2141.38 433.406 2142.08 430.448 2142.46 428.84 2142.85 427.426 2143.23 426.011 2143.55 424.532 2144.25 421.896 2144.38 421.381 2146.23 418.745 2148.02 416.173 2151.02 412.829 2155.8 412.829 2159.51 412.829 2159.57 416.108 2159.57 417.33 2159.57 421.188 2156.83 428.326 2155.8 431.027 2155.1 432.827 2154.85 433.406 2154.85 434.499 2154.85 437.907 2157.66 440.029 2160.91 440.029 2167.29 440.029 2170.1 431.155 2170.1 430.191 2170.1 429.355 2169.27 429.355 2169.08 429.355 2168.19 429.355 2168.12 429.741 2167.87 430.448 2166.4 435.592 2163.66 438.228 2161.1 438.228 2159.76 438.228 2159.51 437.328 2159.51 435.978 2159.51 434.499 2159.83 433.663 2160.97 430.769 2161.74 428.776 2164.36 421.96 2164.36 418.359 2164.36 412.122 2159.44 411.029 2156.06 411.029 2150.76 411.029 2147.19 414.308 2145.27 416.88 2144.83 412.443 2141.06 411.029 2138.44 411.029 2135.7 411.029 2134.23 413.022 2133.4 414.501 2132 416.88 2131.1 420.545 2131.1 420.867 2131.1 421.703 2132 421.703 2132.19 421.703 2133.08 421.703 2133.14 421.51 2133.59 419.774 2134.55 415.98 2135.76 412.829 2138.25 412.829 2139.91 412.829 2140.36 414.244 2140.36 415.98 2140.36 417.202 2139.78 419.581 2139.34 421.317 2138.89 423.053 2138.25 425.689 2137.93 427.104L2135.89 435.335Z" fill-rule="evenodd"/><path d="M2207.1 422.282C2207.1 415.144 2201.79 411.029 2195.53 411.029 2186.06 411.029 2177.1 419.967 2177.1 428.776 2177.1 435.206 2181.77 440.029 2188.75 440.029 2197.89 440.029 2207.1 431.541 2207.1 422.282ZM2188.81 438.228C2185.61 438.228 2182.41 436.171 2182.41 431.091 2182.41 428.454 2183.63 422.153 2186.12 418.488 2188.87 414.501 2192.58 412.829 2195.46 412.829 2198.92 412.829 2201.86 415.208 2201.86 419.967 2201.86 421.51 2201.09 427.876 2198.28 432.377 2195.85 436.171 2192.01 438.228 2188.81 438.228Z" fill-rule="evenodd"/><path d="M2242.82 418.92C2243.27 417.188 2244.04 414.108 2244.04 413.788 2244.04 412.504 2243.01 411.734 2241.92 411.734 2240.7 411.734 2239.55 412.504 2239.16 413.595 2238.97 414.108 2238.33 416.803 2237.88 418.407 2236.98 422.064 2236.98 422.192 2236.02 425.785 2235.19 429.314 2235.06 429.827 2235 431.688 2235.25 432.971 2234.74 434.19 2233.2 436.115 2232.37 437.141 2231.08 438.232 2228.9 438.232 2226.4 438.232 2223.13 437.334 2223.13 432.329 2223.13 429.057 2224.93 424.31 2226.21 421.038 2227.3 418.215 2227.56 417.637 2227.56 416.546 2227.56 413.467 2224.93 411.093 2221.47 411.093 2214.99 411.093 2212.11 419.819 2212.11 420.909 2212.11 421.743 2213 421.743 2213.2 421.743 2214.09 421.743 2214.16 421.423 2214.35 420.717 2215.95 415.392 2218.71 412.889 2221.27 412.889 2222.36 412.889 2222.88 413.595 2222.88 415.135 2222.88 416.611 2222.3 418.022 2221.98 418.856 2218.32 428.223 2218.32 429.506 2218.32 431.495 2218.32 439.066 2225.19 440.029 2228.65 440.029 2229.87 440.029 2233.01 440.029 2235.89 435.73 2237.37 438.617 2240.9 440.029 2244.81 440.029 2250.51 440.029 2253.33 435.088 2254.62 432.458 2257.37 427.068 2259.11 419.049 2259.11 416.097 2259.11 411.285 2256.35 411.029 2255.9 411.029 2254.23 411.029 2252.44 412.761 2252.44 414.429 2252.44 415.52 2253.08 416.033 2253.53 416.418 2255.07 417.701 2255.9 419.498 2255.9 421.551 2255.9 422.385 2253.21 438.232 2245.06 438.232 2239.87 438.232 2239.87 433.612 2239.87 432.522 2239.87 430.79 2240.13 429.763 2241.02 426.106L2242.82 418.92Z" fill-rule="evenodd"/><path d="M2271.89 435.335C2271.64 436.171 2271.26 437.778 2271.26 437.971 2271.26 439.386 2272.4 440.029 2273.43 440.029 2274.58 440.029 2275.6 439.193 2275.92 438.614 2276.23 438.035 2276.75 435.978 2277.06 434.628 2277.38 433.406 2278.09 430.448 2278.47 428.84 2278.85 427.426 2279.23 426.011 2279.55 424.532 2280.26 421.896 2280.38 421.381 2282.23 418.745 2284.02 416.173 2287.02 412.829 2291.81 412.829 2295.51 412.829 2295.57 416.108 2295.57 417.33 2295.57 421.188 2292.83 428.326 2291.81 431.027 2291.11 432.827 2290.85 433.406 2290.85 434.499 2290.85 437.907 2293.66 440.029 2296.92 440.029 2303.3 440.029 2306.11 431.155 2306.11 430.191 2306.11 429.355 2305.28 429.355 2305.09 429.355 2304.19 429.355 2304.13 429.741 2303.87 430.448 2302.41 435.592 2299.66 438.228 2297.11 438.228 2295.77 438.228 2295.51 437.328 2295.51 435.978 2295.51 434.499 2295.83 433.663 2296.98 430.769 2297.75 428.776 2300.36 421.96 2300.36 418.359 2300.36 412.122 2295.45 411.029 2292.06 411.029 2286.77 411.029 2283.19 414.308 2281.28 416.88 2280.83 412.443 2277.06 411.029 2274.45 411.029 2271.7 411.029 2270.23 413.022 2269.41 414.501 2268 416.88 2267.11 420.545 2267.11 420.867 2267.11 421.703 2268 421.703 2268.19 421.703 2269.09 421.703 2269.15 421.51 2269.6 419.774 2270.55 415.98 2271.77 412.829 2274.26 412.829 2275.92 412.829 2276.36 414.244 2276.36 415.98 2276.36 417.202 2275.79 419.581 2275.34 421.317 2274.89 423.053 2274.26 425.689 2273.94 427.104L2271.89 435.335Z" fill-rule="evenodd"/><path d="M2108.47 460.516C2108.47 459.47 2107.72 458.031 2105.96 458.031 2104.27 458.031 2102.45 459.731 2102.45 461.627 2102.45 462.739 2103.26 464.112 2104.96 464.112 2106.77 464.112 2108.47 462.281 2108.47 460.516ZM2095.68 493.728C2095.43 494.578 2095.11 495.363 2095.11 496.474 2095.11 499.547 2097.62 502.032 2101.07 502.032 2107.34 502.032 2110.1 493.009 2110.1 492.029 2110.1 491.179 2109.28 491.179 2109.09 491.179 2108.22 491.179 2108.15 491.571 2107.9 492.29 2106.46 497.521 2103.7 500.201 2101.26 500.201 2100 500.201 2099.69 499.351 2099.69 497.913 2099.69 496.409 2100.13 495.167 2100.69 493.728 2101.32 491.963 2102.01 490.198 2102.7 488.498 2103.26 486.929 2105.52 480.98 2105.77 480.195 2105.96 479.541 2106.15 478.756 2106.15 478.103 2106.15 475.03 2103.64 472.546 2100.19 472.546 2093.98 472.546 2091.1 481.437 2091.1 482.549 2091.1 483.399 2091.98 483.399 2092.16 483.399 2093.04 483.399 2093.1 483.072 2093.29 482.352 2094.92 476.73 2097.68 474.376 2100 474.376 2101.01 474.376 2101.57 474.899 2101.57 476.664 2101.57 478.168 2101.19 479.149 2099.63 483.202L2095.68 493.728Z" fill-rule="evenodd"/><path d="M2393.9 457.033C2395.46 457.033 2397.11 457.033 2397.11 455.033 2397.11 453.033 2395.46 453.033 2393.9 453.033L2344.32 453.033C2342.76 453.033 2341.11 453.033 2341.11 455.033 2341.11 457.033 2342.76 457.033 2344.32 457.033L2393.9 457.033Z" fill-rule="evenodd"/><path d="M2465.58 477.343C2479.71 471.83 2493.11 455.199 2493.11 437.165 2493.11 422.122 2483.45 412.031 2469.86 412.031 2450.17 412.031 2430.11 433.241 2430.11 455.012 2430.11 470.522 2440.32 479.96 2453.45 479.96 2455.73 479.96 2458.83 479.586 2462.39 478.558 2462.02 484.351 2462.02 484.538 2462.02 485.753 2462.02 488.742 2462.02 496.031 2469.59 496.031 2480.44 496.031 2484.82 478.932 2484.82 477.904 2484.82 477.25 2484.18 476.969 2483.81 476.969 2483.08 476.969 2482.9 477.437 2482.72 477.997 2480.53 484.631 2475.24 486.967 2472.05 486.967 2467.86 486.967 2466.49 484.444 2465.58 477.343ZM2448.35 476.596C2441.24 473.699 2438.14 466.411 2438.14 458.002 2438.14 451.555 2440.51 438.286 2447.44 428.195 2454.09 418.665 2462.66 414.367 2469.32 414.367 2478.43 414.367 2485.09 421.655 2485.09 434.175 2485.09 443.519 2480.44 465.383 2465.12 474.166 2464.67 470.896 2463.76 464.075 2457.1 464.075 2452.27 464.075 2447.8 468.747 2447.8 473.606 2447.8 475.474 2448.35 476.502 2448.35 476.596ZM2454 477.624C2452.72 477.624 2449.81 477.624 2449.81 473.606 2449.81 469.868 2453.27 466.131 2457.1 466.131 2460.93 466.131 2462.66 468.373 2462.66 474.073 2462.66 475.474 2462.57 475.568 2461.66 475.942 2459.29 476.969 2456.55 477.624 2454 477.624Z" fill-rule="evenodd"/><path d="M2525.43 414.758C2523.1 415.144 2522.13 416.944 2522.13 418.359 2522.13 420.095 2523.49 420.738 2524.66 420.738 2526.08 420.738 2528.34 419.709 2528.34 416.623 2528.34 412.251 2523.3 411.029 2519.81 411.029 2510.11 411.029 2501.12 419.902 2501.12 428.84 2501.12 434.37 2505 440.029 2513.08 440.029 2524.01 440.029 2529.12 433.663 2529.12 432.763 2529.12 432.377 2528.54 431.669 2528.02 431.669 2527.63 431.669 2527.5 431.798 2526.98 432.313 2521.94 438.228 2514.37 438.228 2513.21 438.228 2508.55 438.228 2506.48 435.078 2506.48 431.091 2506.48 429.226 2507.39 422.217 2510.75 417.781 2513.21 414.63 2516.57 412.829 2519.81 412.829 2520.71 412.829 2523.82 412.958 2525.43 414.758Z" fill-rule="evenodd"/><path d="M2556.77 414.823C2555.45 412.701 2553.32 411.029 2550.3 411.029 2542.27 411.029 2534.12 420.095 2534.12 429.355 2534.12 435.592 2538.19 440.029 2543.59 440.029 2546.98 440.029 2549.99 438.035 2552.5 435.528 2553.69 439.386 2557.33 440.029 2558.96 440.029 2561.22 440.029 2562.79 438.614 2563.92 436.621 2565.3 434.113 2566.12 430.448 2566.12 430.191 2566.12 429.355 2565.3 429.355 2565.11 429.355 2564.23 429.355 2564.17 429.612 2563.73 431.348 2562.98 434.434 2561.79 438.228 2559.15 438.228 2557.52 438.228 2557.08 436.814 2557.08 435.078 2557.08 433.984 2557.58 431.669 2558.02 429.998 2558.46 428.262 2559.09 425.625 2559.4 424.211L2560.66 419.324C2561.03 417.652 2561.79 414.63 2561.79 414.308 2561.79 412.893 2560.66 412.251 2559.65 412.251 2558.59 412.251 2557.14 413.022 2556.77 414.823ZM2552.75 431.348C2552.31 433.149 2550.93 434.434 2549.55 435.656 2548.99 436.171 2546.48 438.228 2543.78 438.228 2541.46 438.228 2539.2 436.557 2539.2 431.991 2539.2 428.583 2541.02 421.51 2542.46 418.938 2545.35 413.794 2548.55 412.829 2550.3 412.829 2554.7 412.829 2555.89 417.716 2555.89 418.423 2555.89 418.681 2555.76 419.131 2555.7 419.324L2552.75 431.348Z" fill-rule="evenodd"/><path d="M2587.87 395.989C2587.93 395.859 2588.12 395.009 2588.12 394.944 2588.12 394.617 2587.87 394.029 2587.12 394.029 2585.87 394.029 2580.68 394.552 2579.12 394.682 2578.68 394.748 2577.8 394.813 2577.8 396.185 2577.8 397.1 2578.68 397.1 2579.37 397.1 2582.37 397.1 2582.37 397.557 2582.37 398.08 2582.37 398.538 2582.24 398.93 2582.12 399.518L2574.37 431.796C2574.18 432.45 2574.12 433.168 2574.12 433.822 2574.12 438.004 2577.68 440.029 2580.68 440.029 2582.18 440.029 2584.05 439.507 2585.68 436.566 2586.99 434.149 2587.87 430.293 2587.87 430.032 2587.87 429.183 2587.05 429.183 2586.87 429.183 2585.99 429.183 2585.87 429.575 2585.62 430.751 2584.8 434.018 2583.62 438.2 2580.93 438.2 2579.24 438.2 2578.8 436.566 2578.8 434.998 2578.8 434.279 2578.99 433.038 2579.18 432.319L2587.87 395.989Z" fill-rule="evenodd"/><path d="M2518.4 460.516C2518.4 459.47 2517.61 458.031 2515.76 458.031 2513.98 458.031 2512.07 459.731 2512.07 461.627 2512.07 462.739 2512.93 464.112 2514.71 464.112 2516.62 464.112 2518.4 462.281 2518.4 460.516ZM2504.94 493.728C2504.67 494.578 2504.34 495.363 2504.34 496.474 2504.34 499.547 2506.98 502.032 2510.62 502.032 2517.22 502.032 2520.12 493.009 2520.12 492.029 2520.12 491.179 2519.26 491.179 2519.06 491.179 2518.14 491.179 2518.07 491.571 2517.81 492.29 2516.29 497.521 2513.39 500.201 2510.81 500.201 2509.49 500.201 2509.16 499.351 2509.16 497.913 2509.16 496.409 2509.62 495.167 2510.22 493.728 2510.88 491.963 2511.61 490.198 2512.33 488.498 2512.93 486.929 2515.3 480.98 2515.57 480.195 2515.76 479.541 2515.96 478.756 2515.96 478.103 2515.96 475.03 2513.32 472.546 2509.69 472.546 2503.16 472.546 2500.12 481.437 2500.12 482.549 2500.12 483.399 2501.04 483.399 2501.24 483.399 2502.17 483.399 2502.23 483.072 2502.43 482.352 2504.15 476.73 2507.05 474.376 2509.49 474.376 2510.55 474.376 2511.14 474.899 2511.14 476.664 2511.14 478.168 2510.75 479.149 2509.1 483.202L2504.94 493.728Z" fill-rule="evenodd"/><path d="M2624.12 455.031C2624.12 447.699 2623.12 436.325 2618.15 425.703 2612.71 414.141 2604.93 408.031 2604.02 408.031 2603.48 408.031 2603.12 408.407 2603.12 408.971 2603.12 409.253 2603.12 409.441 2604.84 411.133 2613.71 420.439 2618.87 435.385 2618.87 455.031 2618.87 471.105 2615.52 487.649 2604.3 499.493 2603.12 500.621 2603.12 500.809 2603.12 501.091 2603.12 501.655 2603.48 502.031 2604.02 502.031 2604.93 502.031 2613.08 495.639 2618.42 483.701 2623.03 473.361 2624.12 462.927 2624.12 455.031Z" fill-rule="evenodd"/><path d="M2690.97 456.892 2716.14 456.892C2717.41 456.892 2719.12 456.892 2719.12 455.031 2719.12 453.169 2717.41 453.169 2716.14 453.169L2690.97 453.169 2690.97 427.102C2690.97 425.799 2690.97 424.03 2689.17 424.03 2687.36 424.03 2687.36 425.799 2687.36 427.102L2687.36 453.169 2662.1 453.169C2660.84 453.169 2659.12 453.169 2659.12 455.031 2659.12 456.892 2660.84 456.892 2662.1 456.892L2687.36 456.892 2687.36 482.958C2687.36 484.262 2687.36 486.031 2689.17 486.031 2690.97 486.031 2690.97 484.262 2690.97 482.958L2690.97 456.892Z" fill-rule="evenodd"/><path d="M2788.54 456.13C2788.54 441.573 2779.92 437.03 2773.06 437.03 2760.36 437.03 2748.13 450.288 2748.13 463.362 2748.13 471.984 2753.69 479.03 2763.14 479.03 2768.98 479.03 2775.66 476.898 2782.7 471.242 2783.91 476.156 2786.97 479.03 2791.14 479.03 2796.05 479.03 2798.92 473.931 2798.92 472.447 2798.92 471.799 2798.37 471.52 2797.81 471.52 2797.16 471.52 2796.88 471.799 2796.61 472.447 2794.94 476.99 2791.6 476.99 2791.42 476.99 2788.54 476.99 2788.54 469.759 2788.54 467.534 2788.54 465.587 2788.54 465.401 2789.47 464.289 2798.18 453.348 2800.13 442.593 2800.13 442.5 2800.13 442.315 2800.04 441.573 2799.02 441.573 2798.09 441.573 2798.09 441.851 2797.63 443.52 2795.96 449.361 2792.9 456.408 2788.54 461.878L2788.54 456.13ZM2782.33 468.832C2774.17 475.971 2767.04 476.99 2763.33 476.99 2757.77 476.99 2754.99 472.818 2754.99 466.885 2754.99 462.342 2757.4 452.328 2760.36 447.6 2764.72 440.832 2769.73 439.07 2772.97 439.07 2782.15 439.07 2782.15 451.216 2782.15 458.448 2782.15 461.878 2782.15 467.255 2782.33 468.832Z" fill-rule="evenodd"/><path d="M2824.42 451.515C2824.42 450.469 2823.62 449.031 2821.78 449.031 2819.99 449.031 2818.08 450.731 2818.08 452.627 2818.08 453.738 2818.94 455.111 2820.72 455.111 2822.63 455.111 2824.42 453.281 2824.42 451.515ZM2810.95 484.728C2810.69 485.578 2810.36 486.362 2810.36 487.474 2810.36 490.547 2813 493.031 2816.63 493.031 2823.23 493.031 2826.13 484.009 2826.13 483.028 2826.13 482.178 2825.27 482.178 2825.08 482.178 2824.15 482.178 2824.09 482.571 2823.82 483.29 2822.3 488.52 2819.4 491.201 2816.83 491.201 2815.51 491.201 2815.18 490.351 2815.18 488.913 2815.18 487.409 2815.64 486.167 2816.23 484.728 2816.89 482.963 2817.62 481.198 2818.34 479.498 2818.94 477.929 2821.31 471.979 2821.58 471.195 2821.78 470.541 2821.97 469.756 2821.97 469.103 2821.97 466.03 2819.33 463.545 2815.7 463.545 2809.17 463.545 2806.13 472.437 2806.13 473.548 2806.13 474.398 2807.06 474.398 2807.25 474.398 2808.18 474.398 2808.24 474.071 2808.44 473.352 2810.16 467.729 2813.06 465.376 2815.51 465.376 2816.56 465.376 2817.16 465.899 2817.16 467.664 2817.16 469.168 2816.76 470.148 2815.11 474.202L2810.95 484.728Z" fill-rule="evenodd"/><path d="M2864.13 501.091C2864.13 500.809 2864.13 500.621 2862.59 499.023 2851.28 487.179 2848.38 469.413 2848.38 455.031 2848.38 438.675 2851.82 422.319 2862.95 410.569 2864.13 409.441 2864.13 409.253 2864.13 408.971 2864.13 408.313 2863.77 408.031 2863.22 408.031 2862.32 408.031 2854.17 414.423 2848.83 426.361 2844.21 436.701 2843.13 447.135 2843.13 455.031 2843.13 462.363 2844.12 473.737 2849.1 484.359 2854.53 495.921 2862.32 502.031 2863.22 502.031 2863.77 502.031 2864.13 501.749 2864.13 501.091Z" fill-rule="evenodd"/><path d="M2926.28 425.541C2930.74 418.349 2934.57 418.073 2937.95 417.888 2939.04 417.796 2939.13 416.229 2939.13 416.136 2939.13 415.399 2938.68 415.03 2937.95 415.03 2935.58 415.03 2932.93 415.307 2930.47 415.307 2927.46 415.307 2924.36 415.03 2921.44 415.03 2920.9 415.03 2919.71 415.03 2919.71 416.782 2919.71 417.796 2920.53 417.888 2921.17 417.888 2923.63 418.073 2925.36 418.995 2925.36 420.931 2925.36 422.314 2924 424.342 2924 424.435L2896.01 469.427 2889.81 420.654C2889.81 419.087 2891.91 417.888 2896.1 417.888 2897.38 417.888 2898.38 417.888 2898.38 416.044 2898.38 415.214 2897.65 415.03 2897.1 415.03 2893.46 415.03 2889.54 415.307 2885.8 415.307 2884.16 415.307 2882.43 415.214 2880.79 415.214 2879.14 415.214 2877.41 415.03 2875.86 415.03 2875.22 415.03 2874.13 415.03 2874.13 416.782 2874.13 417.888 2874.95 417.888 2876.41 417.888 2881.52 417.888 2881.61 418.718 2881.88 421.023L2889.08 477.91C2889.35 479.754 2889.72 480.03 2890.9 480.03 2892.36 480.03 2892.73 479.569 2893.46 478.371L2926.28 425.541Z" fill-rule="evenodd"/><path d="M2962.62 395.989C2962.68 395.859 2962.88 395.009 2962.88 394.944 2962.88 394.617 2962.62 394.029 2961.84 394.029 2960.53 394.029 2955.14 394.552 2953.51 394.682 2952.99 394.748 2952.08 394.813 2952.08 396.185 2952.08 397.1 2952.99 397.1 2953.77 397.1 2956.89 397.1 2956.89 397.557 2956.89 398.08 2956.89 398.538 2956.76 398.93 2956.63 399.518L2947.46 436.501C2947.14 437.677 2947.14 437.808 2947.14 437.938 2947.14 438.919 2947.92 440.029 2949.35 440.029 2951.1 440.029 2951.95 438.722 2952.34 437.285 2952.47 437.024 2955.27 425.523 2955.53 424.609 2960.14 425.066 2963.85 426.569 2963.85 429.967 2963.85 430.293 2963.85 430.62 2963.72 431.274 2963.46 432.254 2963.46 432.58 2963.46 433.299 2963.46 437.938 2967.23 440.029 2970.36 440.029 2976.66 440.029 2978.62 430.098 2978.62 430.032 2978.62 429.183 2977.77 429.183 2977.58 429.183 2976.66 429.183 2976.6 429.509 2976.27 430.751 2975.49 433.56 2973.74 438.2 2970.55 438.2 2968.79 438.2 2968.27 436.566 2968.27 434.802 2968.27 433.691 2968.27 433.56 2968.66 431.862 2968.73 431.666 2968.99 430.555 2968.99 429.836 2968.99 424.021 2961.19 423.106 2958.45 422.91 2960.34 421.734 2962.75 419.578 2963.85 418.597 2967.17 415.461 2970.42 412.39 2974.06 412.39 2974.84 412.39 2975.69 412.586 2976.21 413.239 2973.41 413.697 2972.83 415.918 2972.83 416.898 2972.83 418.336 2973.93 419.316 2975.43 419.316 2977.19 419.316 2979.14 417.879 2979.14 415.134 2979.14 412.978 2977.58 410.56 2974.13 410.56 2970.42 410.56 2967.04 413.239 2963.72 416.311 2960.99 418.924 2958.84 420.95 2956.18 422.06L2962.62 395.989Z" fill-rule="evenodd"/><path d="M2990.92 435.335C2990.67 436.171 2990.28 437.778 2990.28 437.971 2990.28 439.386 2991.43 440.029 2992.45 440.029 2993.6 440.029 2994.62 439.193 2994.94 438.614 2995.26 438.035 2995.77 435.978 2996.09 434.628 2996.41 433.406 2997.11 430.448 2997.5 428.84 2997.88 427.426 2998.26 426.011 2998.58 424.532 2999.28 421.896 2999.41 421.381 3001.26 418.745 3003.05 416.173 3006.05 412.829 3010.84 412.829 3014.54 412.829 3014.6 416.108 3014.6 417.33 3014.6 421.188 3011.86 428.326 3010.84 431.027 3010.14 432.827 3009.88 433.406 3009.88 434.499 3009.88 437.907 3012.69 440.029 3015.94 440.029 3022.33 440.029 3025.14 431.155 3025.14 430.191 3025.14 429.355 3024.31 429.355 3024.11 429.355 3023.22 429.355 3023.16 429.741 3022.9 430.448 3021.43 435.592 3018.69 438.228 3016.14 438.228 3014.8 438.228 3014.54 437.328 3014.54 435.978 3014.54 434.499 3014.86 433.663 3016.01 430.769 3016.77 428.776 3019.39 421.96 3019.39 418.359 3019.39 412.122 3014.48 411.029 3011.09 411.029 3005.8 411.029 3002.22 414.308 3000.31 416.88 2999.86 412.443 2996.09 411.029 2993.48 411.029 2990.73 411.029 2989.26 413.022 2988.43 414.501 2987.03 416.88 2986.14 420.545 2986.14 420.867 2986.14 421.703 2987.03 421.703 2987.22 421.703 2988.11 421.703 2988.18 421.51 2988.62 419.774 2989.58 415.98 2990.79 412.829 2993.28 412.829 2994.94 412.829 2995.39 414.244 2995.39 415.98 2995.39 417.202 2994.82 419.581 2994.37 421.317 2993.92 423.053 2993.28 425.689 2992.97 427.104L2990.92 435.335Z" fill-rule="evenodd"/><path d="M3062.14 422.282C3062.14 415.144 3056.83 411.029 3050.56 411.029 3041.09 411.029 3032.14 419.967 3032.14 428.776 3032.14 435.206 3036.81 440.029 3043.78 440.029 3052.93 440.029 3062.14 431.541 3062.14 422.282ZM3043.84 438.228C3040.64 438.228 3037.45 436.171 3037.45 431.091 3037.45 428.454 3038.66 422.153 3041.16 418.488 3043.91 414.501 3047.62 412.829 3050.5 412.829 3053.95 412.829 3056.89 415.208 3056.89 419.967 3056.89 421.51 3056.12 427.876 3053.31 432.377 3050.88 436.171 3047.04 438.228 3043.84 438.228Z" fill-rule="evenodd"/><path d="M3097.85 418.92C3098.3 417.188 3099.07 414.108 3099.07 413.788 3099.07 412.504 3098.04 411.734 3096.96 411.734 3095.74 411.734 3094.58 412.504 3094.2 413.595 3094.01 414.108 3093.36 416.803 3092.92 418.407 3092.02 422.064 3092.02 422.192 3091.06 425.785 3090.22 429.314 3090.09 429.827 3090.03 431.688 3090.29 432.971 3089.77 434.19 3088.23 436.115 3087.4 437.141 3086.12 438.232 3083.94 438.232 3081.44 438.232 3078.17 437.334 3078.17 432.329 3078.17 429.057 3079.96 424.31 3081.25 421.038 3082.34 418.215 3082.59 417.637 3082.59 416.546 3082.59 413.467 3079.96 411.093 3076.5 411.093 3070.02 411.093 3067.14 419.819 3067.14 420.909 3067.14 421.743 3068.04 421.743 3068.23 421.743 3069.13 421.743 3069.19 421.423 3069.38 420.717 3070.99 415.392 3073.74 412.889 3076.31 412.889 3077.4 412.889 3077.91 413.595 3077.91 415.135 3077.91 416.611 3077.33 418.022 3077.01 418.856 3073.36 428.223 3073.36 429.506 3073.36 431.495 3073.36 439.066 3080.22 440.029 3083.68 440.029 3084.9 440.029 3088.04 440.029 3090.93 435.73 3092.4 438.617 3095.93 440.029 3099.84 440.029 3105.55 440.029 3108.37 435.088 3109.65 432.458 3112.41 427.068 3114.14 419.049 3114.14 416.097 3114.14 411.285 3111.38 411.029 3110.93 411.029 3109.27 411.029 3107.47 412.761 3107.47 414.429 3107.47 415.52 3108.11 416.033 3108.56 416.418 3110.1 417.701 3110.93 419.498 3110.93 421.551 3110.93 422.385 3108.24 438.232 3100.1 438.232 3094.9 438.232 3094.9 433.612 3094.9 432.522 3094.9 430.79 3095.16 429.763 3096.06 426.106L3097.85 418.92Z" fill-rule="evenodd"/><path d="M3126.93 435.335C3126.67 436.171 3126.29 437.778 3126.29 437.971 3126.29 439.386 3127.44 440.029 3128.46 440.029 3129.61 440.029 3130.63 439.193 3130.95 438.614 3131.27 438.035 3131.78 435.978 3132.1 434.628 3132.42 433.406 3133.12 430.448 3133.5 428.84 3133.89 427.426 3134.27 426.011 3134.59 424.532 3135.29 421.896 3135.42 421.381 3137.27 418.745 3139.06 416.173 3142.06 412.829 3146.84 412.829 3150.54 412.829 3150.61 416.108 3150.61 417.33 3150.61 421.188 3147.86 428.326 3146.84 431.027 3146.14 432.827 3145.89 433.406 3145.89 434.499 3145.89 437.907 3148.69 440.029 3151.95 440.029 3158.33 440.029 3161.14 431.155 3161.14 430.191 3161.14 429.355 3160.31 429.355 3160.12 429.355 3159.23 429.355 3159.16 429.741 3158.91 430.448 3157.44 435.592 3154.69 438.228 3152.14 438.228 3150.8 438.228 3150.54 437.328 3150.54 435.978 3150.54 434.499 3150.86 433.663 3152.01 430.769 3152.78 428.776 3155.4 421.96 3155.4 418.359 3155.4 412.122 3150.48 411.029 3147.1 411.029 3141.8 411.029 3138.23 414.308 3136.31 416.88 3135.86 412.443 3132.1 411.029 3129.48 411.029 3126.74 411.029 3125.27 413.022 3124.44 414.501 3123.03 416.88 3122.14 420.545 3122.14 420.867 3122.14 421.703 3123.03 421.703 3123.23 421.703 3124.12 421.703 3124.18 421.51 3124.63 419.774 3125.59 415.98 3126.8 412.829 3129.29 412.829 3130.95 412.829 3131.4 414.244 3131.4 415.98 3131.4 417.202 3130.82 419.581 3130.37 421.317 3129.93 423.053 3129.29 425.689 3128.97 427.104L3126.93 435.335Z" fill-rule="evenodd"/><path d="M2943.42 460.516C2943.42 459.47 2942.63 458.031 2940.78 458.031 2939 458.031 2937.08 459.731 2937.08 461.627 2937.08 462.739 2937.94 464.112 2939.72 464.112 2941.64 464.112 2943.42 462.281 2943.42 460.516ZM2929.96 493.728C2929.69 494.578 2929.36 495.363 2929.36 496.474 2929.36 499.547 2932 502.032 2935.63 502.032 2942.23 502.032 2945.14 493.009 2945.14 492.029 2945.14 491.179 2944.28 491.179 2944.08 491.179 2943.16 491.179 2943.09 491.571 2942.83 492.29 2941.31 497.521 2938.4 500.201 2935.83 500.201 2934.51 500.201 2934.18 499.351 2934.18 497.913 2934.18 496.409 2934.64 495.167 2935.24 493.728 2935.9 491.963 2936.62 490.198 2937.35 488.498 2937.94 486.929 2940.32 480.98 2940.58 480.195 2940.78 479.541 2940.98 478.756 2940.98 478.103 2940.98 475.03 2938.34 472.546 2934.71 472.546 2928.17 472.546 2925.14 481.437 2925.14 482.549 2925.14 483.399 2926.06 483.399 2926.26 483.399 2927.18 483.399 2927.25 483.072 2927.45 482.352 2929.16 476.73 2932.07 474.376 2934.51 474.376 2935.57 474.376 2936.16 474.899 2936.16 476.664 2936.16 478.168 2935.76 479.149 2934.11 483.202L2929.96 493.728Z" fill-rule="evenodd"/><path d="M3248.94 457.033C3250.49 457.033 3252.14 457.033 3252.14 455.033 3252.14 453.033 3250.49 453.033 3248.94 453.033L3199.35 453.033C3197.79 453.033 3196.14 453.033 3196.14 455.033 3196.14 457.033 3197.79 457.033 3199.35 457.033L3248.94 457.033Z" fill-rule="evenodd"/><path d="M3337.29 425.541C3341.76 418.349 3345.59 418.073 3348.96 417.888 3350.06 417.796 3350.15 416.229 3350.15 416.136 3350.15 415.399 3349.69 415.03 3348.96 415.03 3346.59 415.03 3343.95 415.307 3341.49 415.307 3338.48 415.307 3335.38 415.03 3332.46 415.03 3331.91 415.03 3330.73 415.03 3330.73 416.782 3330.73 417.796 3331.55 417.888 3332.19 417.888 3334.65 418.073 3336.38 418.995 3336.38 420.931 3336.38 422.314 3335.01 424.342 3335.01 424.435L3307.03 469.427 3300.83 420.654C3300.83 419.087 3302.92 417.888 3307.12 417.888 3308.39 417.888 3309.4 417.888 3309.4 416.044 3309.4 415.214 3308.67 415.03 3308.12 415.03 3304.47 415.03 3300.55 415.307 3296.82 415.307 3295.17 415.307 3293.44 415.214 3291.8 415.214 3290.16 415.214 3288.43 415.03 3286.88 415.03 3286.24 415.03 3285.15 415.03 3285.15 416.782 3285.15 417.888 3285.97 417.888 3287.43 417.888 3292.53 417.888 3292.62 418.718 3292.9 421.023L3300.1 477.91C3300.37 479.754 3300.74 480.03 3301.92 480.03 3303.38 480.03 3303.74 479.569 3304.47 478.371L3337.29 425.541Z" fill-rule="evenodd"/><path d="M3381.59 414.758C3379.35 415.144 3378.41 416.944 3378.41 418.359 3378.41 420.095 3379.72 420.738 3380.84 420.738 3382.22 420.738 3384.4 419.709 3384.4 416.623 3384.4 412.251 3379.53 411.029 3376.17 411.029 3366.81 411.029 3358.15 419.902 3358.15 428.84 3358.15 434.37 3361.89 440.029 3369.68 440.029 3380.22 440.029 3385.15 433.663 3385.15 432.763 3385.15 432.377 3384.59 431.669 3384.09 431.669 3383.71 431.669 3383.59 431.798 3383.09 432.313 3378.22 438.228 3370.93 438.228 3369.81 438.228 3365.32 438.228 3363.32 435.078 3363.32 431.091 3363.32 429.226 3364.19 422.217 3367.44 417.781 3369.81 414.63 3373.05 412.829 3376.17 412.829 3377.04 412.829 3380.03 412.958 3381.59 414.758Z" fill-rule="evenodd"/><path d="M3413.51 414.823C3412.15 412.701 3409.95 411.029 3406.85 411.029 3398.56 411.029 3390.15 420.095 3390.15 429.355 3390.15 435.592 3394.36 440.029 3399.92 440.029 3403.42 440.029 3406.52 438.035 3409.11 435.528 3410.34 439.386 3414.09 440.029 3415.78 440.029 3418.11 440.029 3419.72 438.614 3420.89 436.621 3422.31 434.113 3423.15 430.448 3423.15 430.191 3423.15 429.355 3422.31 429.355 3422.12 429.355 3421.21 429.355 3421.15 429.612 3420.69 431.348 3419.92 434.434 3418.69 438.228 3415.97 438.228 3414.29 438.228 3413.84 436.814 3413.84 435.078 3413.84 433.984 3414.35 431.669 3414.81 429.998 3415.26 428.262 3415.91 425.625 3416.23 424.211L3417.52 419.324C3417.91 417.652 3418.69 414.63 3418.69 414.308 3418.69 412.893 3417.52 412.251 3416.49 412.251 3415.39 412.251 3413.9 413.022 3413.51 414.823ZM3409.37 431.348C3408.92 433.149 3407.49 434.434 3406.07 435.656 3405.49 436.171 3402.9 438.228 3400.12 438.228 3397.72 438.228 3395.39 436.557 3395.39 431.991 3395.39 428.583 3397.27 421.51 3398.76 418.938 3401.74 413.794 3405.04 412.829 3406.85 412.829 3411.38 412.829 3412.61 417.716 3412.61 418.423 3412.61 418.681 3412.48 419.131 3412.41 419.324L3409.37 431.348Z" fill-rule="evenodd"/><path d="M3443.9 395.989C3443.96 395.859 3444.15 395.009 3444.15 394.944 3444.15 394.617 3443.9 394.029 3443.15 394.029 3441.9 394.029 3436.71 394.552 3435.15 394.682 3434.71 394.748 3433.84 394.813 3433.84 396.185 3433.84 397.1 3434.71 397.1 3435.4 397.1 3438.4 397.1 3438.4 397.557 3438.4 398.08 3438.4 398.538 3438.27 398.93 3438.15 399.518L3430.4 431.796C3430.21 432.45 3430.15 433.168 3430.15 433.822 3430.15 438.004 3433.71 440.029 3436.71 440.029 3438.21 440.029 3440.09 439.507 3441.71 436.566 3443.02 434.149 3443.9 430.293 3443.9 430.032 3443.9 429.183 3443.09 429.183 3442.9 429.183 3442.02 429.183 3441.9 429.575 3441.65 430.751 3440.84 434.018 3439.65 438.2 3436.96 438.2 3435.27 438.2 3434.84 436.566 3434.84 434.998 3434.84 434.279 3435.02 433.038 3435.21 432.319L3443.9 395.989Z" fill-rule="evenodd"/><path d="M3354.44 460.516C3354.44 459.47 3353.65 458.031 3351.8 458.031 3350.02 458.031 3348.1 459.731 3348.1 461.627 3348.1 462.739 3348.96 464.112 3350.74 464.112 3352.66 464.112 3354.44 462.281 3354.44 460.516ZM3340.97 493.728C3340.71 494.578 3340.38 495.363 3340.38 496.474 3340.38 499.547 3343.02 502.032 3346.65 502.032 3353.25 502.032 3356.15 493.009 3356.15 492.029 3356.15 491.179 3355.3 491.179 3355.1 491.179 3354.17 491.179 3354.11 491.571 3353.84 492.29 3352.33 497.521 3349.42 500.201 3346.85 500.201 3345.53 500.201 3345.2 499.351 3345.2 497.913 3345.2 496.409 3345.66 495.167 3346.25 493.728 3346.91 491.963 3347.64 490.198 3348.36 488.498 3348.96 486.929 3351.34 480.98 3351.6 480.195 3351.8 479.541 3352 478.756 3352 478.103 3352 475.03 3349.36 472.546 3345.72 472.546 3339.19 472.546 3336.15 481.437 3336.15 482.549 3336.15 483.399 3337.08 483.399 3337.28 483.399 3338.2 483.399 3338.27 483.072 3338.46 482.352 3340.18 476.73 3343.08 474.376 3345.53 474.376 3346.58 474.376 3347.18 474.899 3347.18 476.664 3347.18 478.168 3346.78 479.149 3345.13 483.202L3340.97 493.728Z" fill-rule="evenodd"/><path d="M3480.15 455.031C3480.15 447.699 3479.16 436.325 3474.18 425.703 3468.75 414.141 3460.96 408.031 3460.06 408.031 3459.51 408.031 3459.15 408.407 3459.15 408.971 3459.15 409.253 3459.15 409.441 3460.87 411.133 3469.74 420.439 3474.9 435.385 3474.9 455.031 3474.9 471.105 3471.55 487.649 3460.33 499.493 3459.15 500.621 3459.15 500.809 3459.15 501.091 3459.15 501.655 3459.51 502.031 3460.06 502.031 3460.96 502.031 3469.11 495.639 3474.45 483.701 3479.07 473.361 3480.15 462.927 3480.15 455.031Z" fill-rule="evenodd"/><path d="M3547.54 456.892 3573.13 456.892C3574.41 456.892 3576.16 456.892 3576.16 455.031 3576.16 453.169 3574.41 453.169 3573.13 453.169L3547.54 453.169 3547.54 427.102C3547.54 425.799 3547.54 424.03 3545.7 424.03 3543.87 424.03 3543.87 425.799 3543.87 427.102L3543.87 453.169 3518.18 453.169C3516.9 453.169 3515.16 453.169 3515.16 455.031 3515.16 456.892 3516.9 456.892 3518.18 456.892L3543.87 456.892 3543.87 482.958C3543.87 484.262 3543.87 486.031 3545.7 486.031 3547.54 486.031 3547.54 484.262 3547.54 482.958L3547.54 456.892Z" fill-rule="evenodd"/><path d="M3656.16 443.52C3656.16 439.348 3654.52 437.03 3652.52 437.03 3650.15 437.03 3647.69 439.255 3647.69 441.388 3647.69 442.315 3648.15 443.335 3649.06 444.169 3650.6 445.56 3652.24 448.063 3652.24 451.957 3652.24 455.666 3650.51 460.951 3647.69 465.216 3644.96 469.202 3641.59 472.355 3637.31 472.355 3632.12 472.355 3629.3 469.017 3628.48 464.01 3629.48 461.6 3631.57 455.666 3631.57 453.07 3631.57 451.957 3631.12 451.03 3629.93 451.03 3629.21 451.03 3628.2 451.216 3627.47 452.606 3626.47 454.461 3625.38 460.487 3625.38 463.825 3622.38 468.183 3618.73 472.355 3613 472.355 3606.99 472.355 3605.07 466.885 3605.07 461.693 3605.07 450.103 3614.36 440.368 3614.36 439.163 3614.36 438.143 3613.63 437.401 3612.63 437.401 3611.45 437.401 3610.81 438.606 3610.26 439.441 3605.62 446.302 3602.16 457.335 3602.16 465.772 3602.16 472.169 3604.25 479.03 3611.72 479.03 3618.19 479.03 3622.47 474.395 3625.74 469.295 3626.56 474.673 3630.12 479.03 3635.76 479.03 3642.86 479.03 3647.24 473.375 3650.51 466.421 3652.7 461.878 3656.16 449.269 3656.16 443.52Z" fill-rule="evenodd"/><path d="M3678.53 451.515C3678.53 450.469 3677.78 449.031 3676.02 449.031 3674.33 449.031 3672.51 450.731 3672.51 452.627 3672.51 453.738 3673.32 455.111 3675.02 455.111 3676.84 455.111 3678.53 453.281 3678.53 451.515ZM3665.74 484.728C3665.49 485.578 3665.17 486.362 3665.17 487.474 3665.17 490.547 3667.68 493.031 3671.13 493.031 3677.4 493.031 3680.16 484.009 3680.16 483.028 3680.16 482.178 3679.34 482.178 3679.16 482.178 3678.28 482.178 3678.22 482.571 3677.96 483.29 3676.52 488.52 3673.76 491.201 3671.32 491.201 3670.06 491.201 3669.75 490.351 3669.75 488.913 3669.75 487.409 3670.19 486.167 3670.75 484.728 3671.38 482.963 3672.07 481.198 3672.76 479.498 3673.32 477.929 3675.58 471.979 3675.83 471.195 3676.02 470.541 3676.21 469.756 3676.21 469.103 3676.21 466.03 3673.7 463.545 3670.25 463.545 3664.04 463.545 3661.16 472.437 3661.16 473.548 3661.16 474.398 3662.04 474.398 3662.22 474.398 3663.1 474.398 3663.17 474.071 3663.35 473.352 3664.98 467.729 3667.74 465.376 3670.06 465.376 3671.07 465.376 3671.63 465.899 3671.63 467.664 3671.63 469.168 3671.25 470.148 3669.69 474.202L3665.74 484.728Z" fill-rule="evenodd"/><path d="M3719.17 501.091C3719.17 500.809 3719.17 500.621 3717.56 499.023 3705.7 487.179 3702.67 469.413 3702.67 455.031 3702.67 438.675 3706.27 422.319 3717.94 410.569 3719.17 409.441 3719.17 409.253 3719.17 408.971 3719.17 408.313 3718.79 408.031 3718.22 408.031 3717.27 408.031 3708.74 414.423 3703.14 426.361 3698.31 436.701 3697.17 447.135 3697.17 455.031 3697.17 462.363 3698.21 473.737 3703.43 484.359 3709.12 495.921 3717.27 502.031 3718.22 502.031 3718.79 502.031 3719.17 501.749 3719.17 501.091Z" fill-rule="evenodd"/><path d="M3781.31 425.541C3785.78 418.349 3789.61 418.073 3792.98 417.888 3794.07 417.796 3794.16 416.229 3794.16 416.136 3794.16 415.399 3793.71 415.03 3792.98 415.03 3790.61 415.03 3787.97 415.307 3785.5 415.307 3782.5 415.307 3779.4 415.03 3776.48 415.03 3775.93 415.03 3774.75 415.03 3774.75 416.782 3774.75 417.796 3775.57 417.888 3776.2 417.888 3778.67 418.073 3780.4 418.995 3780.4 420.931 3780.4 422.314 3779.03 424.342 3779.03 424.435L3751.04 469.427 3744.84 420.654C3744.84 419.087 3746.94 417.888 3751.13 417.888 3752.41 417.888 3753.41 417.888 3753.41 416.044 3753.41 415.214 3752.68 415.03 3752.14 415.03 3748.49 415.03 3744.57 415.307 3740.83 415.307 3739.19 415.307 3737.46 415.214 3735.82 415.214 3734.18 415.214 3732.45 415.03 3730.9 415.03 3730.26 415.03 3729.16 415.03 3729.16 416.782 3729.16 417.888 3729.98 417.888 3731.44 417.888 3736.55 417.888 3736.64 418.718 3736.91 421.023L3744.11 477.91C3744.39 479.754 3744.75 480.03 3745.94 480.03 3747.4 480.03 3747.76 479.569 3748.49 478.371L3781.31 425.541Z" fill-rule="evenodd"/><path d="M3824.72 415.208C3823.09 415.594 3822.09 416.944 3822.09 418.231 3822.09 419.709 3823.34 420.288 3824.16 420.288 3824.78 420.288 3827.16 419.902 3827.16 416.623 3827.16 412.443 3822.65 411.029 3818.83 411.029 3809.06 411.029 3807.3 418.423 3807.3 420.417 3807.3 422.796 3808.62 424.339 3809.49 425.111 3811.12 426.397 3812.25 426.654 3816.57 427.426 3817.89 427.683 3821.9 428.454 3821.9 431.669 3821.9 432.763 3821.21 435.206 3818.58 436.814 3816.14 438.228 3813.07 438.228 3812.31 438.228 3809.81 438.228 3806.24 437.65 3804.8 435.528 3806.86 435.27 3808.24 433.663 3808.24 431.863 3808.24 430.255 3807.11 429.483 3805.8 429.483 3803.98 429.483 3802.16 430.962 3802.16 433.792 3802.16 437.65 3806.17 440.029 3812.25 440.029 3823.78 440.029 3825.91 431.927 3825.91 429.419 3825.91 423.503 3819.58 422.346 3817.26 421.896 3816.7 421.767 3815.13 421.51 3814.76 421.381 3812.44 420.931 3811.31 419.581 3811.31 418.166 3811.31 416.687 3812.44 414.951 3813.82 414.051 3815.51 412.958 3817.7 412.829 3818.77 412.829 3820.08 412.829 3823.34 413.022 3824.72 415.208Z" fill-rule="evenodd"/><path d="M3849.92 395.989C3849.98 395.859 3850.17 395.009 3850.17 394.944 3850.17 394.617 3849.92 394.029 3849.17 394.029 3847.92 394.029 3842.73 394.552 3841.17 394.682 3840.73 394.748 3839.85 394.813 3839.85 396.185 3839.85 397.1 3840.73 397.1 3841.42 397.1 3844.42 397.1 3844.42 397.557 3844.42 398.08 3844.42 398.538 3844.29 398.93 3844.17 399.518L3836.42 431.796C3836.23 432.45 3836.17 433.168 3836.17 433.822 3836.17 438.004 3839.73 440.029 3842.73 440.029 3844.23 440.029 3846.1 439.507 3847.73 436.566 3849.04 434.149 3849.92 430.293 3849.92 430.032 3849.92 429.183 3849.1 429.183 3848.92 429.183 3848.04 429.183 3847.92 429.575 3847.67 430.751 3846.85 434.018 3845.67 438.2 3842.98 438.2 3841.29 438.2 3840.85 436.566 3840.85 434.998 3840.85 434.279 3841.04 433.038 3841.23 432.319L3849.92 395.989Z" fill-rule="evenodd"/><path d="M3882.53 414.823C3881.17 412.701 3878.97 411.029 3875.87 411.029 3867.58 411.029 3859.17 420.095 3859.17 429.355 3859.17 435.592 3863.38 440.029 3868.94 440.029 3872.44 440.029 3875.54 438.035 3878.13 435.528 3879.36 439.386 3883.11 440.029 3884.8 440.029 3887.12 440.029 3888.74 438.614 3889.91 436.621 3891.33 434.113 3892.17 430.448 3892.17 430.191 3892.17 429.355 3891.33 429.355 3891.14 429.355 3890.23 429.355 3890.17 429.612 3889.71 431.348 3888.94 434.434 3887.71 438.228 3884.99 438.228 3883.31 438.228 3882.85 436.814 3882.85 435.078 3882.85 433.984 3883.37 431.669 3883.82 429.998 3884.28 428.262 3884.92 425.625 3885.25 424.211L3886.54 419.324C3886.93 417.652 3887.71 414.63 3887.71 414.308 3887.71 412.893 3886.54 412.251 3885.51 412.251 3884.41 412.251 3882.92 413.022 3882.53 414.823ZM3878.39 431.348C3877.94 433.149 3876.51 434.434 3875.09 435.656 3874.51 436.171 3871.92 438.228 3869.14 438.228 3866.74 438.228 3864.41 436.557 3864.41 431.991 3864.41 428.583 3866.29 421.51 3867.78 418.938 3870.75 413.794 3874.05 412.829 3875.87 412.829 3880.4 412.829 3881.62 417.716 3881.62 418.423 3881.62 418.681 3881.5 419.131 3881.43 419.324L3878.39 431.348Z" fill-rule="evenodd"/><path d="M3923.49 414.758C3921.16 415.144 3920.19 416.944 3920.19 418.359 3920.19 420.095 3921.55 420.738 3922.71 420.738 3924.13 420.738 3926.4 419.709 3926.4 416.623 3926.4 412.251 3921.35 411.029 3917.86 411.029 3908.16 411.029 3899.17 419.902 3899.17 428.84 3899.17 434.37 3903.05 440.029 3911.14 440.029 3922.07 440.029 3927.17 433.663 3927.17 432.763 3927.17 432.377 3926.59 431.669 3926.07 431.669 3925.69 431.669 3925.56 431.798 3925.04 432.313 3920 438.228 3912.43 438.228 3911.27 438.228 3906.61 438.228 3904.54 435.078 3904.54 431.091 3904.54 429.226 3905.45 422.217 3908.81 417.781 3911.27 414.63 3914.63 412.829 3917.86 412.829 3918.77 412.829 3921.87 412.958 3923.49 414.758Z" fill-rule="evenodd"/><path d="M3947.66 395.989C3947.72 395.859 3947.92 395.009 3947.92 394.944 3947.92 394.617 3947.66 394.029 3946.88 394.029 3945.57 394.029 3940.18 394.552 3938.55 394.682 3938.03 394.748 3937.12 394.813 3937.12 396.185 3937.12 397.1 3938.03 397.1 3938.81 397.1 3941.93 397.1 3941.93 397.557 3941.93 398.08 3941.93 398.538 3941.8 398.93 3941.67 399.518L3932.5 436.501C3932.18 437.677 3932.18 437.808 3932.18 437.938 3932.18 438.919 3932.96 440.029 3934.39 440.029 3936.14 440.029 3936.99 438.722 3937.38 437.285 3937.51 437.024 3940.31 425.523 3940.57 424.609 3945.18 425.066 3948.89 426.569 3948.89 429.967 3948.89 430.293 3948.89 430.62 3948.76 431.274 3948.5 432.254 3948.5 432.58 3948.5 433.299 3948.5 437.938 3952.27 440.029 3955.4 440.029 3961.7 440.029 3963.66 430.098 3963.66 430.032 3963.66 429.183 3962.81 429.183 3962.62 429.183 3961.7 429.183 3961.64 429.509 3961.31 430.751 3960.53 433.56 3958.78 438.2 3955.59 438.2 3953.83 438.2 3953.31 436.566 3953.31 434.802 3953.31 433.691 3953.31 433.56 3953.7 431.862 3953.77 431.666 3954.03 430.555 3954.03 429.836 3954.03 424.021 3946.22 423.106 3943.49 422.91 3945.38 421.734 3947.79 419.578 3948.89 418.597 3952.21 415.461 3955.46 412.39 3959.1 412.39 3959.88 412.39 3960.73 412.586 3961.25 413.239 3958.45 413.697 3957.87 415.918 3957.87 416.898 3957.87 418.336 3958.97 419.316 3960.47 419.316 3962.22 419.316 3964.18 417.879 3964.18 415.134 3964.18 412.978 3962.62 410.56 3959.17 410.56 3955.46 410.56 3952.08 413.239 3948.76 416.311 3946.03 418.924 3943.88 420.95 3941.22 422.06L3947.66 395.989Z" fill-rule="evenodd"/><path d="M4052.97 457.033C4054.53 457.033 4056.18 457.033 4056.18 455.033 4056.18 453.033 4054.53 453.033 4052.97 453.033L4003.38 453.033C4001.83 453.033 4000.18 453.033 4000.18 455.033 4000.18 457.033 4001.83 457.033 4003.38 457.033L4052.97 457.033Z" fill-rule="evenodd"/><path d="M4141.32 425.541C4145.79 418.349 4149.62 418.073 4152.99 417.888 4154.09 417.796 4154.18 416.229 4154.18 416.136 4154.18 415.399 4153.72 415.03 4152.99 415.03 4150.62 415.03 4147.98 415.307 4145.52 415.307 4142.51 415.307 4139.41 415.03 4136.49 415.03 4135.95 415.03 4134.76 415.03 4134.76 416.782 4134.76 417.796 4135.58 417.888 4136.22 417.888 4138.68 418.073 4140.41 418.995 4140.41 420.931 4140.41 422.314 4139.05 424.342 4139.05 424.435L4111.06 469.427 4104.86 420.654C4104.86 419.087 4106.96 417.888 4111.15 417.888 4112.43 417.888 4113.43 417.888 4113.43 416.044 4113.43 415.214 4112.7 415.03 4112.15 415.03 4108.51 415.03 4104.59 415.307 4100.85 415.307 4099.21 415.307 4097.47 415.214 4095.83 415.214 4094.19 415.214 4092.46 415.03 4090.91 415.03 4090.27 415.03 4089.18 415.03 4089.18 416.782 4089.18 417.888 4090 417.888 4091.46 417.888 4096.56 417.888 4096.65 418.718 4096.93 421.023L4104.13 477.91C4104.4 479.754 4104.77 480.03 4105.95 480.03 4107.41 480.03 4107.78 479.569 4108.51 478.371L4141.32 425.541Z" fill-rule="evenodd"/><path d="M4185.62 414.758C4183.38 415.144 4182.44 416.944 4182.44 418.359 4182.44 420.095 4183.75 420.738 4184.88 420.738 4186.25 420.738 4188.43 419.709 4188.43 416.623 4188.43 412.251 4183.57 411.029 4180.2 411.029 4170.84 411.029 4162.18 419.902 4162.18 428.84 4162.18 434.37 4165.92 440.029 4173.71 440.029 4184.25 440.029 4189.18 433.663 4189.18 432.763 4189.18 432.377 4188.62 431.669 4188.12 431.669 4187.74 431.669 4187.62 431.798 4187.12 432.313 4182.26 438.228 4174.96 438.228 4173.84 438.228 4169.35 438.228 4167.35 435.078 4167.35 431.091 4167.35 429.226 4168.23 422.217 4171.47 417.781 4173.84 414.63 4177.08 412.829 4180.2 412.829 4181.07 412.829 4184.06 412.958 4185.62 414.758Z" fill-rule="evenodd"/><path d="M4217.54 414.823C4216.19 412.701 4213.98 411.029 4210.88 411.029 4202.6 411.029 4194.19 420.095 4194.19 429.355 4194.19 435.592 4198.39 440.029 4203.96 440.029 4207.45 440.029 4210.56 438.035 4213.14 435.528 4214.37 439.386 4218.13 440.029 4219.81 440.029 4222.14 440.029 4223.76 438.614 4224.92 436.621 4226.34 434.113 4227.19 430.448 4227.19 430.191 4227.19 429.355 4226.34 429.355 4226.15 429.355 4225.24 429.355 4225.18 429.612 4224.73 431.348 4223.95 434.434 4222.72 438.228 4220 438.228 4218.32 438.228 4217.87 436.814 4217.87 435.078 4217.87 433.984 4218.39 431.669 4218.84 429.998 4219.29 428.262 4219.94 425.625 4220.26 424.211L4221.56 419.324C4221.94 417.652 4222.72 414.63 4222.72 414.308 4222.72 412.893 4221.56 412.251 4220.52 412.251 4219.42 412.251 4217.93 413.022 4217.54 414.823ZM4213.4 431.348C4212.95 433.149 4211.53 434.434 4210.1 435.656 4209.52 436.171 4206.93 438.228 4204.15 438.228 4201.76 438.228 4199.43 436.557 4199.43 431.991 4199.43 428.583 4201.3 421.51 4202.79 418.938 4205.77 413.794 4209.07 412.829 4210.88 412.829 4215.41 412.829 4216.64 417.716 4216.64 418.423 4216.64 418.681 4216.51 419.131 4216.44 419.324L4213.4 431.348Z" fill-rule="evenodd"/><path d="M4247.93 395.989C4247.99 395.859 4248.18 395.009 4248.18 394.944 4248.18 394.617 4247.93 394.029 4247.18 394.029 4245.93 394.029 4240.74 394.552 4239.18 394.682 4238.74 394.748 4237.87 394.813 4237.87 396.185 4237.87 397.1 4238.74 397.1 4239.43 397.1 4242.43 397.1 4242.43 397.557 4242.43 398.08 4242.43 398.538 4242.31 398.93 4242.18 399.518L4234.43 431.796C4234.24 432.45 4234.18 433.168 4234.18 433.822 4234.18 438.004 4237.74 440.029 4240.74 440.029 4242.24 440.029 4244.12 439.507 4245.74 436.566 4247.06 434.149 4247.93 430.293 4247.93 430.032 4247.93 429.183 4247.12 429.183 4246.93 429.183 4246.06 429.183 4245.93 429.575 4245.68 430.751 4244.87 434.018 4243.68 438.2 4240.99 438.2 4239.31 438.2 4238.87 436.566 4238.87 434.998 4238.87 434.279 4239.06 433.038 4239.24 432.319L4247.93 395.989Z" fill-rule="evenodd"/><path d="M4158.47 460.516C4158.47 459.47 4157.68 458.031 4155.83 458.031 4154.05 458.031 4152.13 459.731 4152.13 461.627 4152.13 462.739 4152.99 464.112 4154.77 464.112 4156.69 464.112 4158.47 462.281 4158.47 460.516ZM4145.01 493.728C4144.74 494.578 4144.41 495.363 4144.41 496.474 4144.41 499.547 4147.05 502.032 4150.68 502.032 4157.28 502.032 4160.19 493.009 4160.19 492.029 4160.19 491.179 4159.33 491.179 4159.13 491.179 4158.21 491.179 4158.14 491.571 4157.88 492.29 4156.36 497.521 4153.45 500.201 4150.88 500.201 4149.56 500.201 4149.23 499.351 4149.23 497.913 4149.23 496.409 4149.69 495.167 4150.29 493.728 4150.95 491.963 4151.67 490.198 4152.4 488.498 4152.99 486.929 4155.37 480.98 4155.63 480.195 4155.83 479.541 4156.03 478.756 4156.03 478.103 4156.03 475.03 4153.39 472.546 4149.76 472.546 4143.22 472.546 4140.19 481.437 4140.19 482.549 4140.19 483.399 4141.11 483.399 4141.31 483.399 4142.23 483.399 4142.3 483.072 4142.5 482.352 4144.21 476.73 4147.12 474.376 4149.56 474.376 4150.62 474.376 4151.21 474.899 4151.21 476.664 4151.21 478.168 4150.81 479.149 4149.16 483.202L4145.01 493.728Z" fill-rule="evenodd"/><path d="M4284.18 455.031C4284.18 447.699 4283.19 436.325 4278.21 425.703 4272.78 414.141 4264.99 408.031 4264.09 408.031 4263.55 408.031 4263.18 408.407 4263.18 408.971 4263.18 409.253 4263.18 409.441 4264.9 411.133 4273.77 420.439 4278.93 435.385 4278.93 455.031 4278.93 471.105 4275.58 487.649 4264.36 499.493 4263.18 500.621 4263.18 500.809 4263.18 501.091 4263.18 501.655 4263.55 502.031 4264.09 502.031 4264.99 502.031 4273.14 495.639 4278.48 483.701 4283.1 473.361 4284.18 462.927 4284.18 455.031Z" fill-rule="evenodd"/></g></svg>